{
  "accessors": [
    {
      "name": "Rectangle003_1_0_positions",
      "componentType": 5126,
      "count": 17,
      "min": [
        -59.05503845214844,
        0,
        -39.28307342529297
      ],
      "max": [
        59.05517578125,
        0.3937009871006012,
        39.94773864746094
      ],
      "type": "VEC3",
      "bufferView": 0,
      "byteOffset": 0
    },
    {
      "name": "Rectangle003_1_0_normals",
      "componentType": 5126,
      "count": 17,
      "min": [
        -0.5773502588272095,
        -0.5773502588272095,
        -0.5773502588272095
      ],
      "max": [
        0.5773502588272095,
        0.5773502588272095,
        0.5773502588272095
      ],
      "type": "VEC3",
      "bufferView": 1,
      "byteOffset": 0
    },
    {
      "name": "Rectangle003_1_0_texcoords",
      "componentType": 5126,
      "count": 17,
      "min": [
        0,
        0
      ],
      "max": [
        1,
        1
      ],
      "type": "VEC2",
      "bufferView": 2,
      "byteOffset": 0
    },
    {
      "name": "Rectangle003_1_0_indices",
      "componentType": 5123,
      "count": 36,
      "min": [
        0
      ],
      "max": [
        16
      ],
      "type": "SCALAR",
      "bufferView": 3,
      "byteOffset": 0
    },
    {
      "name": "door001_1_0_positions",
      "componentType": 5126,
      "count": 20,
      "min": [
        51.783023834228516,
        0,
        28.34299659729004
      ],
      "max": [
        52.338191986083984,
        17.823591232299805,
        39.866493225097656
      ],
      "type": "VEC3",
      "bufferView": 0,
      "byteOffset": 204
    },
    {
      "name": "door001_1_0_normals",
      "componentType": 5126,
      "count": 20,
      "min": [
        -0.5773502588272095,
        -0.5773502588272095,
        -0.5773502588272095
      ],
      "max": [
        0.5773502588272095,
        0.5773502588272095,
        0.5773502588272095
      ],
      "type": "VEC3",
      "bufferView": 1,
      "byteOffset": 204
    },
    {
      "name": "door001_1_0_texcoords",
      "componentType": 5126,
      "count": 20,
      "min": [
        0,
        0
      ],
      "max": [
        1,
        1
      ],
      "type": "VEC2",
      "bufferView": 2,
      "byteOffset": 136
    },
    {
      "name": "door001_1_0_indices",
      "componentType": 5123,
      "count": 36,
      "min": [
        0
      ],
      "max": [
        19
      ],
      "type": "SCALAR",
      "bufferView": 3,
      "byteOffset": 72
    },
    {
      "name": "Line001_1_0_positions",
      "componentType": 5126,
      "count": 66,
      "min": [
        -59.055023193359375,
        0.00008600000001024455,
        -39.370304107666016
      ],
      "max": [
        59.05523681640625,
        21.653629302978516,
        41.041603088378906
      ],
      "type": "VEC3",
      "bufferView": 0,
      "byteOffset": 444
    },
    {
      "name": "Line001_1_0_normals",
      "componentType": 5126,
      "count": 66,
      "min": [
        -0.5773502588272095,
        -0.9045342206954956,
        -0.9045342206954956
      ],
      "max": [
        0.577350914478302,
        0.9045342206954956,
        0.9045342206954956
      ],
      "type": "VEC3",
      "bufferView": 1,
      "byteOffset": 444
    },
    {
      "name": "Line001_1_0_texcoords",
      "componentType": 5126,
      "count": 66,
      "min": [
        0,
        0
      ],
      "max": [
        1,
        1
      ],
      "type": "VEC2",
      "bufferView": 2,
      "byteOffset": 296
    },
    {
      "name": "Line001_1_0_indices",
      "componentType": 5123,
      "count": 156,
      "min": [
        0
      ],
      "max": [
        65
      ],
      "type": "SCALAR",
      "bufferView": 3,
      "byteOffset": 144
    },
    {
      "name": "rool_1_0_positions",
      "componentType": 5126,
      "count": 125,
      "min": [
        -7.90127420425415,
        0.3937009871006012,
        -38.18896484375
      ],
      "max": [
        -7.507559776306152,
        21.259843826293945,
        21.496078491210938
      ],
      "type": "VEC3",
      "bufferView": 0,
      "byteOffset": 1236
    },
    {
      "name": "rool_1_0_normals",
      "componentType": 5126,
      "count": 125,
      "min": [
        -0.9284361004829407,
        -0.577350914478302,
        -0.8601515889167786
      ],
      "max": [
        0.9202832579612732,
        0.6419797539710999,
        0.8539204001426697
      ],
      "type": "VEC3",
      "bufferView": 1,
      "byteOffset": 1236
    },
    {
      "name": "rool_1_0_texcoords",
      "componentType": 5126,
      "count": 125,
      "min": [
        0,
        0
      ],
      "max": [
        1,
        1
      ],
      "type": "VEC2",
      "bufferView": 2,
      "byteOffset": 824
    },
    {
      "name": "rool_1_0_indices",
      "componentType": 5123,
      "count": 342,
      "min": [
        0
      ],
      "max": [
        124
      ],
      "type": "SCALAR",
      "bufferView": 3,
      "byteOffset": 456
    },
    {
      "name": "roolwindow_1_0_positions",
      "componentType": 5126,
      "count": 108,
      "min": [
        -7.776495933532715,
        0.9842389822006226,
        -37.55590057373047
      ],
      "max": [
        -7.606053829193115,
        20.6693115234375,
        20.86617088317871
      ],
      "type": "VEC3",
      "bufferView": 0,
      "byteOffset": 2736
    },
    {
      "name": "roolwindow_1_0_normals",
      "componentType": 5126,
      "count": 108,
      "min": [
        -0.577350914478302,
        -0.577350914478302,
        -0.577350914478302
      ],
      "max": [
        0.577350914478302,
        0.577350914478302,
        0.577350914478302
      ],
      "type": "VEC3",
      "bufferView": 1,
      "byteOffset": 2736
    },
    {
      "name": "roolwindow_1_0_texcoords",
      "componentType": 5126,
      "count": 108,
      "min": [
        0,
        0
      ],
      "max": [
        1,
        1
      ],
      "type": "VEC2",
      "bufferView": 2,
      "byteOffset": 1824
    },
    {
      "name": "roolwindow_1_0_indices",
      "componentType": 5123,
      "count": 216,
      "min": [
        0
      ],
      "max": [
        107
      ],
      "type": "SCALAR",
      "bufferView": 3,
      "byteOffset": 1140
    },
    {
      "name": "Rectangle040_1_0_positions",
      "componentType": 5126,
      "count": 71,
      "min": [
        -59.0550537109375,
        -9.999999974752427e-7,
        -39.37018585205078
      ],
      "max": [
        -57.87393569946289,
        21.653541564941406,
        39.860618591308594
      ],
      "type": "VEC3",
      "bufferView": 0,
      "byteOffset": 4032
    },
    {
      "name": "Rectangle040_1_0_normals",
      "componentType": 5126,
      "count": 71,
      "min": [
        -0.9045369625091553,
        -0.5773502588272095,
        -0.5773502588272095
      ],
      "max": [
        0.9045364260673523,
        0.5773502588272095,
        0.5773502588272095
      ],
      "type": "VEC3",
      "bufferView": 1,
      "byteOffset": 4032
    },
    {
      "name": "Rectangle040_1_0_texcoords",
      "componentType": 5126,
      "count": 71,
      "min": [
        0,
        0
      ],
      "max": [
        1,
        1
      ],
      "type": "VEC2",
      "bufferView": 2,
      "byteOffset": 2688
    },
    {
      "name": "Rectangle040_1_0_indices",
      "componentType": 5123,
      "count": 216,
      "min": [
        0
      ],
      "max": [
        70
      ],
      "type": "SCALAR",
      "bufferView": 3,
      "byteOffset": 1572
    },
    {
      "name": "Rectangle033_1_0_positions",
      "componentType": 5126,
      "count": 40,
      "min": [
        -58.7388916015625,
        8.888272285461426,
        -27.162677764892578
      ],
      "max": [
        -58.24458312988281,
        18.307086944580078,
        28.947479248046875
      ],
      "type": "VEC3",
      "bufferView": 0,
      "byteOffset": 4884
    },
    {
      "name": "Rectangle033_1_0_normals",
      "componentType": 5126,
      "count": 40,
      "min": [
        -0.577350914478302,
        -0.5773502588272095,
        -0.577350914478302
      ],
      "max": [
        0.577350914478302,
        0.5773502588272095,
        0.577350914478302
      ],
      "type": "VEC3",
      "bufferView": 1,
      "byteOffset": 4884
    },
    {
      "name": "Rectangle033_1_0_indices",
      "componentType": 5123,
      "count": 180,
      "min": [
        0
      ],
      "max": [
        39
      ],
      "type": "SCALAR",
      "bufferView": 3,
      "byteOffset": 2004
    },
    {
      "name": "Rectangle034_1_0_positions",
      "componentType": 5126,
      "count": 104,
      "min": [
        -63.04997253417969,
        3.2096030712127686,
        -27.162677764892578
      ],
      "max": [
        -58.28047561645508,
        17.835691452026367,
        28.98523712158203
      ],
      "type": "VEC3",
      "bufferView": 0,
      "byteOffset": 5364
    },
    {
      "name": "Rectangle034_1_0_normals",
      "componentType": 5126,
      "count": 104,
      "min": [
        -0.7836830019950867,
        -0.7837364673614502,
        -0.5774771571159363
      ],
      "max": [
        0.7836830019950867,
        0.783686101436615,
        0.577393114566803
      ],
      "type": "VEC3",
      "bufferView": 1,
      "byteOffset": 5364
    },
    {
      "name": "Rectangle034_1_0_indices",
      "componentType": 5123,
      "count": 216,
      "min": [
        0
      ],
      "max": [
        103
      ],
      "type": "SCALAR",
      "bufferView": 3,
      "byteOffset": 2364
    },
    {
      "name": "Rectangle034_1_1_positions",
      "componentType": 5126,
      "count": 32,
      "min": [
        -63.04997253417969,
        9.566123962402344,
        -27.162677764892578
      ],
      "max": [
        -58.28047561645508,
        17.835691452026367,
        28.94748306274414
      ],
      "type": "VEC3",
      "bufferView": 0,
      "byteOffset": 6612
    },
    {
      "name": "Rectangle034_1_1_normals",
      "componentType": 5126,
      "count": 32,
      "min": [
        -0.7836830019950867,
        -0.7837364673614502,
        -0.5774771571159363
      ],
      "max": [
        0.7836830019950867,
        0.783686101436615,
        0.577393114566803
      ],
      "type": "VEC3",
      "bufferView": 1,
      "byteOffset": 6612
    },
    {
      "name": "Rectangle034_1_1_indices",
      "componentType": 5123,
      "count": 72,
      "min": [
        0
      ],
      "max": [
        31
      ],
      "type": "SCALAR",
      "bufferView": 3,
      "byteOffset": 2796
    }
  ],
  "asset": {
    "generator": "obj2gltf",
    "version": "2.0"
  },
  "buffers": [
    {
      "name": "base",
      "byteLength": 140940,
      "uri": "data:application/octet-stream;base64,"
    }
  ],
  "bufferViews": [
    {
      "name": "bufferView_0",
      "buffer": 0,
      "byteLength": 6996,
      "byteOffset": 0,
      "byteStride": 12,
      "target": 34962
    },
    {
      "name": "bufferView_1",
      "buffer": 0,
      "byteLength": 6996,
      "byteOffset": 6996,
      "byteStride": 12,
      "target": 34962
    },
    {
      "name": "bufferView_2",
      "buffer": 0,
      "byteLength": 3256,
      "byteOffset": 13992,
      "byteStride": 8,
      "target": 34962
    },
    {
      "name": "bufferView_3",
      "buffer": 0,
      "byteLength": 2940,
      "byteOffset": 17248,
      "target": 34963
    },
    {
      "buffer": 0,
      "byteOffset": 20188,
      "byteLength": 47518
    },
    {
      "buffer": 0,
      "byteOffset": 67706,
      "byteLength": 73234
    }
  ],
  "images": [
    {
      "name": "JLv",
      "mimeType": "image/jpeg",
      "bufferView": 4
    },
    {
      "name": "timg",
      "mimeType": "image/jpeg",
      "bufferView": 5
    }
  ],
  "materials": [
    {
      "name": "09___Default",
      "pbrMetallicRoughness": {
        "baseColorTexture": {
          "index": 0
        },
        "baseColorFactor": [
          1,
          1,
          1,
          1
        ],
        "metallicFactor": 0,
        "roughnessFactor": 0.931125
      },
      "emissiveFactor": [
        0,
        0,
        0
      ],
      "alphaMode": "OPAQUE",
      "doubleSided": false
    },
    {
      "name": "02___Default",
      "pbrMetallicRoughness": {
        "baseColorTexture": {
          "index": 1
        },
        "baseColorFactor": [
          1,
          1,
          1,
          1
        ],
        "metallicFactor": 0,
        "roughnessFactor": 0.990000001
      },
      "emissiveFactor": [
        0,
        0,
        0
      ],
      "alphaMode": "OPAQUE",
      "doubleSided": false
    },
    {
      "name": "16___Default",
      "pbrMetallicRoughness": {
        "baseColorFactor": [
          0.862745,
          0.862745,
          0.862745,
          1
        ],
        "metallicFactor": 0,
        "roughnessFactor": 0.990000001
      },
      "emissiveFactor": [
        0,
        0,
        0
      ],
      "alphaMode": "OPAQUE",
      "doubleSided": false
    },
    {
      "name": "04___Default",
      "pbrMetallicRoughness": {
        "baseColorFactor": [
          0.019608,
          0.019608,
          0.019608,
          1
        ],
        "metallicFactor": 0,
        "roughnessFactor": 0.945
      },
      "emissiveFactor": [
        0,
        0,
        0
      ],
      "alphaMode": "OPAQUE",
      "doubleSided": false
    },
    {
      "name": "sadga",
      "pbrMetallicRoughness": {
        "baseColorFactor": [
          0.803922,
          0.917647,
          0.917647,
          0.6
        ],
        "metallicFactor": 0,
        "roughnessFactor": 0.972999998
      },
      "emissiveFactor": [
        0,
        0,
        0
      ],
      "alphaMode": "BLEND",
      "doubleSided": true
    },
    {
      "name": "19___Default",
      "pbrMetallicRoughness": {
        "baseColorFactor": [
          0.588235,
          0.588235,
          0.588235,
          1
        ],
        "metallicFactor": 0,
        "roughnessFactor": 0.990000001
      },
      "emissiveFactor": [
        0,
        0,
        0
      ],
      "alphaMode": "OPAQUE",
      "doubleSided": false
    },
    {
      "name": "01___Default",
      "pbrMetallicRoughness": {
        "baseColorFactor": [
          1,
          1,
          1,
          1
        ],
        "metallicFactor": 0,
        "roughnessFactor": 0.990000001
      },
      "emissiveFactor": [
        0,
        0,
        0
      ],
      "alphaMode": "OPAQUE",
      "doubleSided": false
    },
    {
      "name": "08___Default",
      "pbrMetallicRoughness": {
        "baseColorFactor": [
          0.803922,
          0.917647,
          0.917647,
          0.09999999999999998
        ],
        "metallicFactor": 0,
        "roughnessFactor": 0.972999998
      },
      "emissiveFactor": [
        0,
        0,
        0
      ],
      "alphaMode": "BLEND",
      "doubleSided": true
    },
    {
      "name": "04___Default-2",
      "pbrMetallicRoughness": {
        "baseColorFactor": [
          0.019608,
          0.019608,
          0.019608,
          1
        ],
        "metallicFactor": 0,
        "roughnessFactor": 0.945
      },
      "emissiveFactor": [
        0,
        0,
        0
      ],
      "alphaMode": "OPAQUE",
      "doubleSided": false
    }
  ],
  "meshes": [
    {
      "name": "Rectangle003_1",
      "primitives": [
        {
          "attributes": {
            "POSITION": 0,
            "NORMAL": 1,
            "TEXCOORD_0": 2
          },
          "indices": 3,
          "material": 0,
          "mode": 4
        }
      ]
    },
    {
      "name": "door001_1",
      "primitives": [
        {
          "attributes": {
            "POSITION": 4,
            "NORMAL": 5,
            "TEXCOORD_0": 6
          },
          "indices": 7,
          "material": 1,
          "mode": 4
        }
      ]
    },
    {
      "name": "Line001_1",
      "primitives": [
        {
          "attributes": {
            "POSITION": 8,
            "NORMAL": 9,
            "TEXCOORD_0": 10
          },
          "indices": 11,
          "material": 2,
          "mode": 4
        }
      ]
    },
    {
      "name": "rool_1",
      "primitives": [
        {
          "attributes": {
            "POSITION": 12,
            "NORMAL": 13,
            "TEXCOORD_0": 14
          },
          "indices": 15,
          "material": 3,
          "mode": 4
        }
      ]
    },
    {
      "name": "roolwindow_1",
      "primitives": [
        {
          "attributes": {
            "POSITION": 16,
            "NORMAL": 17,
            "TEXCOORD_0": 18
          },
          "indices": 19,
          "material": 4,
          "mode": 4
        }
      ]
    },
    {
      "name": "Rectangle040_1",
      "primitives": [
        {
          "attributes": {
            "POSITION": 20,
            "NORMAL": 21,
            "TEXCOORD_0": 22
          },
          "indices": 23,
          "material": 5,
          "mode": 4
        }
      ]
    },
    {
      "name": "Rectangle033_1",
      "primitives": [
        {
          "attributes": {
            "POSITION": 24,
            "NORMAL": 25
          },
          "indices": 26,
          "material": 6,
          "mode": 4
        }
      ]
    },
    {
      "name": "Rectangle034_1",
      "primitives": [
        {
          "attributes": {
            "POSITION": 27,
            "NORMAL": 28
          },
          "indices": 29,
          "material": 7,
          "mode": 4
        },
        {
          "attributes": {
            "POSITION": 30,
            "NORMAL": 31
          },
          "indices": 32,
          "material": 8,
          "mode": 4
        }
      ]
    }
  ],
  "nodes": [
    {
      "name": "Rectangle003",
      "mesh": 0
    },
    {
      "name": "door001",
      "mesh": 1
    },
    {
      "name": "Line001",
      "mesh": 2
    },
    {
      "name": "rool",
      "mesh": 3
    },
    {
      "name": "roolwindow",
      "mesh": 4
    },
    {
      "name": "Rectangle040",
      "mesh": 5
    },
    {
      "name": "Rectangle033",
      "mesh": 6
    },
    {
      "name": "Rectangle034",
      "mesh": 7
    }
  ],
  "samplers": [
    {
      "magFilter": 9729,
      "minFilter": 9986,
      "wrapS": 10497,
      "wrapT": 10497
    }
  ],
  "scene": 0,
  "scenes": [
    {
      "nodes": [
        0,
        1,
        2,
        3,
        4,
        5,
        6,
        7
      ]
    }
  ],
  "textures": [
    {
      "name": "JLv",
      "sampler": 0,
      "source": 0
    },
    {
      "name": "timg",
      "sampler": 0,
      "source": 1
    }
  ]
}
