{
  "accessors": [
    {
      "name": "Rectangle003_1_0_positions",
      "componentType": 5126,
      "count": 14,
      "min": [
        -59.05503845214844,
        0,
        -39.28307342529297
      ],
      "max": [
        59.05517578125,
        0.3937007784843445,
        39.94773864746094
      ],
      "type": "VEC3",
      "bufferView": 0,
      "byteOffset": 0
    },
    {
      "name": "Rectangle003_1_0_normals",
      "componentType": 5126,
      "count": 14,
      "min": [
        -0.5773502588272095,
        -0.5773502588272095,
        -0.5773502588272095
      ],
      "max": [
        0.5773502588272095,
        0.5773502588272095,
        0.5773502588272095
      ],
      "type": "VEC3",
      "bufferView": 1,
      "byteOffset": 0
    },
    {
      "name": "Rectangle003_1_0_texcoords",
      "componentType": 5126,
      "count": 14,
      "min": [
        0,
        0
      ],
      "max": [
        1,
        1
      ],
      "type": "VEC2",
      "bufferView": 2,
      "byteOffset": 0
    },
    {
      "name": "Rectangle003_1_0_indices",
      "componentType": 5123,
      "count": 30,
      "min": [
        0
      ],
      "max": [
        13
      ],
      "type": "SCALAR",
      "bufferView": 3,
      "byteOffset": 0
    },
    {
      "name": "Rectangle003_1_1_positions",
      "componentType": 5126,
      "count": 4,
      "min": [
        -59.05503845214844,
        0.3937007784843445,
        -39.28307342529297
      ],
      "max": [
        59.05517578125,
        0.3937007784843445,
        39.94773864746094
      ],
      "type": "VEC3",
      "bufferView": 0,
      "byteOffset": 168
    },
    {
      "name": "Rectangle003_1_1_normals",
      "componentType": 5126,
      "count": 4,
      "min": [
        -0.5773502588272095,
        0.5773502588272095,
        -0.5773502588272095
      ],
      "max": [
        0.5773502588272095,
        0.5773502588272095,
        0.5773502588272095
      ],
      "type": "VEC3",
      "bufferView": 1,
      "byteOffset": 168
    },
    {
      "name": "Rectangle003_1_1_texcoords",
      "componentType": 5126,
      "count": 4,
      "min": [
        0,
        0
      ],
      "max": [
        1,
        1
      ],
      "type": "VEC2",
      "bufferView": 2,
      "byteOffset": 112
    },
    {
      "name": "Rectangle003_1_1_indices",
      "componentType": 5123,
      "count": 6,
      "min": [
        0
      ],
      "max": [
        3
      ],
      "type": "SCALAR",
      "bufferView": 3,
      "byteOffset": 60
    },
    {
      "name": "door001_1_0_positions",
      "componentType": 5126,
      "count": 20,
      "min": [
        51.783023834228516,
        0,
        28.34299659729004
      ],
      "max": [
        52.338191986083984,
        17.823591232299805,
        39.866493225097656
      ],
      "type": "VEC3",
      "bufferView": 0,
      "byteOffset": 216
    },
    {
      "name": "door001_1_0_normals",
      "componentType": 5126,
      "count": 20,
      "min": [
        -0.577350378036499,
        -0.5773502588272095,
        -0.577350378036499
      ],
      "max": [
        0.577350378036499,
        0.5773502588272095,
        0.577350378036499
      ],
      "type": "VEC3",
      "bufferView": 1,
      "byteOffset": 216
    },
    {
      "name": "door001_1_0_texcoords",
      "componentType": 5126,
      "count": 20,
      "min": [
        0,
        0
      ],
      "max": [
        1,
        1
      ],
      "type": "VEC2",
      "bufferView": 2,
      "byteOffset": 144
    },
    {
      "name": "door001_1_0_indices",
      "componentType": 5123,
      "count": 36,
      "min": [
        0
      ],
      "max": [
        19
      ],
      "type": "SCALAR",
      "bufferView": 3,
      "byteOffset": 72
    },
    {
      "name": "Line001_1_0_positions",
      "componentType": 5126,
      "count": 66,
      "min": [
        -59.055023193359375,
        0.00008609068754594773,
        -39.370304107666016
      ],
      "max": [
        59.05523681640625,
        21.653629302978516,
        41.041603088378906
      ],
      "type": "VEC3",
      "bufferView": 0,
      "byteOffset": 456
    },
    {
      "name": "Line001_1_0_normals",
      "componentType": 5126,
      "count": 66,
      "min": [
        -0.5773502588272095,
        -0.9045340418815613,
        -0.9045340418815613
      ],
      "max": [
        0.5773507356643677,
        0.9045340418815613,
        0.9045340418815613
      ],
      "type": "VEC3",
      "bufferView": 1,
      "byteOffset": 456
    },
    {
      "name": "Line001_1_0_texcoords",
      "componentType": 5126,
      "count": 66,
      "min": [
        0,
        0
      ],
      "max": [
        1,
        1
      ],
      "type": "VEC2",
      "bufferView": 2,
      "byteOffset": 304
    },
    {
      "name": "Line001_1_0_indices",
      "componentType": 5123,
      "count": 156,
      "min": [
        0
      ],
      "max": [
        65
      ],
      "type": "SCALAR",
      "bufferView": 3,
      "byteOffset": 144
    },
    {
      "name": "rool_1_0_positions",
      "componentType": 5126,
      "count": 125,
      "min": [
        -7.901273727416992,
        0.39370059967041016,
        -38.18896484375
      ],
      "max": [
        -7.507559776306152,
        21.259843826293945,
        21.496078491210938
      ],
      "type": "VEC3",
      "bufferView": 0,
      "byteOffset": 1248
    },
    {
      "name": "rool_1_0_normals",
      "componentType": 5126,
      "count": 125,
      "min": [
        -0.9284359812736511,
        -0.5773510336875916,
        -0.8601514101028442
      ],
      "max": [
        0.9202832579612732,
        0.6419795751571655,
        0.8539203405380249
      ],
      "type": "VEC3",
      "bufferView": 1,
      "byteOffset": 1248
    },
    {
      "name": "rool_1_0_texcoords",
      "componentType": 5126,
      "count": 125,
      "min": [
        0,
        0
      ],
      "max": [
        1,
        1
      ],
      "type": "VEC2",
      "bufferView": 2,
      "byteOffset": 832
    },
    {
      "name": "rool_1_0_indices",
      "componentType": 5123,
      "count": 342,
      "min": [
        0
      ],
      "max": [
        124
      ],
      "type": "SCALAR",
      "bufferView": 3,
      "byteOffset": 456
    },
    {
      "name": "roolwindow_1_0_positions",
      "componentType": 5126,
      "count": 108,
      "min": [
        -7.776496410369873,
        0.9842386245727539,
        -37.55590057373047
      ],
      "max": [
        -7.606054306030273,
        20.6693115234375,
        20.86617088317871
      ],
      "type": "VEC3",
      "bufferView": 0,
      "byteOffset": 2748
    },
    {
      "name": "roolwindow_1_0_normals",
      "componentType": 5126,
      "count": 108,
      "min": [
        -0.577350914478302,
        -0.5773506760597229,
        -0.5773512721061707
      ],
      "max": [
        0.5773507356643677,
        0.5773508548736572,
        0.5773512125015259
      ],
      "type": "VEC3",
      "bufferView": 1,
      "byteOffset": 2748
    },
    {
      "name": "roolwindow_1_0_texcoords",
      "componentType": 5126,
      "count": 108,
      "min": [
        0,
        0
      ],
      "max": [
        1,
        1
      ],
      "type": "VEC2",
      "bufferView": 2,
      "byteOffset": 1832
    },
    {
      "name": "roolwindow_1_0_indices",
      "componentType": 5123,
      "count": 216,
      "min": [
        0
      ],
      "max": [
        107
      ],
      "type": "SCALAR",
      "bufferView": 3,
      "byteOffset": 1140
    },
    {
      "name": "Rectangle040_1_0_positions",
      "componentType": 5126,
      "count": 86,
      "min": [
        -59.0550537109375,
        -9.536739753457368e-7,
        -39.37018585205078
      ],
      "max": [
        -57.87393569946289,
        21.653541564941406,
        39.860618591308594
      ],
      "type": "VEC3",
      "bufferView": 0,
      "byteOffset": 4044
    },
    {
      "name": "Rectangle040_1_0_normals",
      "componentType": 5126,
      "count": 86,
      "min": [
        -0.904536783695221,
        -0.577350378036499,
        -0.577350378036499
      ],
      "max": [
        0.9045366048812866,
        0.577350378036499,
        0.577350378036499
      ],
      "type": "VEC3",
      "bufferView": 1,
      "byteOffset": 4044
    },
    {
      "name": "Rectangle040_1_0_texcoords",
      "componentType": 5126,
      "count": 86,
      "min": [
        0,
        0
      ],
      "max": [
        1,
        1
      ],
      "type": "VEC2",
      "bufferView": 2,
      "byteOffset": 2696
    },
    {
      "name": "Rectangle040_1_0_indices",
      "componentType": 5123,
      "count": 216,
      "min": [
        0
      ],
      "max": [
        85
      ],
      "type": "SCALAR",
      "bufferView": 3,
      "byteOffset": 1572
    },
    {
      "name": "Rectangle033_1_0_positions",
      "componentType": 5126,
      "count": 40,
      "min": [
        -58.7388916015625,
        8.888272285461426,
        -27.162677764892578
      ],
      "max": [
        -58.24458312988281,
        18.307086944580078,
        28.947479248046875
      ],
      "type": "VEC3",
      "bufferView": 0,
      "byteOffset": 5076
    },
    {
      "name": "Rectangle033_1_0_normals",
      "componentType": 5126,
      "count": 40,
      "min": [
        -0.5773506164550781,
        -0.5773504972457886,
        -0.5773506164550781
      ],
      "max": [
        0.5773505568504333,
        0.5773504972457886,
        0.5773505568504333
      ],
      "type": "VEC3",
      "bufferView": 1,
      "byteOffset": 5076
    },
    {
      "name": "Rectangle033_1_0_indices",
      "componentType": 5123,
      "count": 180,
      "min": [
        0
      ],
      "max": [
        39
      ],
      "type": "SCALAR",
      "bufferView": 3,
      "byteOffset": 2004
    },
    {
      "name": "Rectangle034_1_0_positions",
      "componentType": 5126,
      "count": 104,
      "min": [
        -63.04997253417969,
        3.2096033096313477,
        -27.162677764892578
      ],
      "max": [
        -58.28047561645508,
        17.835691452026367,
        28.98523712158203
      ],
      "type": "VEC3",
      "bufferView": 0,
      "byteOffset": 5556
    },
    {
      "name": "Rectangle034_1_0_normals",
      "componentType": 5126,
      "count": 104,
      "min": [
        -0.7836834192276001,
        -0.7837364077568054,
        -0.577476978302002
      ],
      "max": [
        0.7836828231811523,
        0.7836861610412598,
        0.577393114566803
      ],
      "type": "VEC3",
      "bufferView": 1,
      "byteOffset": 5556
    },
    {
      "name": "Rectangle034_1_0_indices",
      "componentType": 5123,
      "count": 216,
      "min": [
        0
      ],
      "max": [
        103
      ],
      "type": "SCALAR",
      "bufferView": 3,
      "byteOffset": 2364
    },
    {
      "name": "Rectangle034_1_1_positions",
      "componentType": 5126,
      "count": 32,
      "min": [
        -63.04997253417969,
        9.566123962402344,
        -27.162677764892578
      ],
      "max": [
        -58.28047561645508,
        17.835691452026367,
        28.94748306274414
      ],
      "type": "VEC3",
      "bufferView": 0,
      "byteOffset": 6804
    },
    {
      "name": "Rectangle034_1_1_normals",
      "componentType": 5126,
      "count": 32,
      "min": [
        -0.7836834192276001,
        -0.7837364077568054,
        -0.577476978302002
      ],
      "max": [
        0.7836828231811523,
        0.7836861610412598,
        0.577393114566803
      ],
      "type": "VEC3",
      "bufferView": 1,
      "byteOffset": 6804
    },
    {
      "name": "Rectangle034_1_1_indices",
      "componentType": 5123,
      "count": 72,
      "min": [
        0
      ],
      "max": [
        31
      ],
      "type": "SCALAR",
      "bufferView": 3,
      "byteOffset": 2796
    }
  ],
  "asset": {
    "generator": "obj2gltf",
    "version": "2.0"
  },
  "buffers": [
    {
      "name": "base",
      "byteLength": 453736,
      "uri": "data:application/octet-stream;base64,"
    }
  ],
  "bufferViews": [
    {
      "name": "bufferView_0",
      "buffer": 0,
      "byteLength": 7188,
      "byteOffset": 0,
      "byteStride": 12,
      "target": 34962
    },
    {
      "name": "bufferView_1",
      "buffer": 0,
      "byteLength": 7188,
      "byteOffset": 7188,
      "byteStride": 12,
      "target": 34962
    },
    {
      "name": "bufferView_2",
      "buffer": 0,
      "byteLength": 3384,
      "byteOffset": 14376,
      "byteStride": 8,
      "target": 34962
    },
    {
      "name": "bufferView_3",
      "buffer": 0,
      "byteLength": 2940,
      "byteOffset": 17760,
      "target": 34963
    },
    {
      "buffer": 0,
      "byteOffset": 20700,
      "byteLength": 2480
    },
    {
      "buffer": 0,
      "byteOffset": 23180,
      "byteLength": 430554
    }
  ],
  "images": [
    {
      "name": "JLv",
      "mimeType": "image/png",
      "bufferView": 4
    },
    {
      "name": "timg",
      "mimeType": "image/png",
      "bufferView": 5
    }
  ],
  "materials": [
    {
      "name": "19___Default",
      "pbrMetallicRoughness": {
        "baseColorFactor": [
          0.113725490868,
          0.113725490868,
          0.113725490868,
          1
        ],
        "metallicFactor": 0,
        "roughnessFactor": 0.99
      },
      "emissiveFactor": [
        0,
        0,
        0
      ],
      "alphaMode": "OPAQUE",
      "doubleSided": false
    },
    {
      "name": "23___Default",
      "pbrMetallicRoughness": {
        "baseColorTexture": {
          "index": 0
        },
        "baseColorFactor": [
          1,
          1,
          1,
          1
        ],
        "metallicFactor": 0,
        "roughnessFactor": 0.990000000953674
      },
      "emissiveFactor": [
        0,
        0,
        0
      ],
      "alphaMode": "OPAQUE",
      "doubleSided": false
    },
    {
      "name": "02___Default",
      "pbrMetallicRoughness": {
        "baseColorTexture": {
          "index": 1
        },
        "baseColorFactor": [
          1,
          1,
          1,
          1
        ],
        "metallicFactor": 0,
        "roughnessFactor": 0.990000000953674
      },
      "emissiveFactor": [
        0,
        0,
        0
      ],
      "alphaMode": "OPAQUE",
      "doubleSided": false
    },
    {
      "name": "16___Default",
      "pbrMetallicRoughness": {
        "baseColorFactor": [
          0.86274510622,
          0.86274510622,
          0.86274510622,
          1
        ],
        "metallicFactor": 0,
        "roughnessFactor": 0.990000000953674
      },
      "emissiveFactor": [
        0,
        0,
        0
      ],
      "alphaMode": "OPAQUE",
      "doubleSided": false
    },
    {
      "name": "04___Default",
      "pbrMetallicRoughness": {
        "baseColorFactor": [
          0.019607843831,
          0.019607843831,
          0.019607843831,
          1
        ],
        "metallicFactor": 0,
        "roughnessFactor": 0.945
      },
      "emissiveFactor": [
        0,
        0,
        0
      ],
      "alphaMode": "OPAQUE",
      "doubleSided": false
    },
    {
      "name": "sadga",
      "pbrMetallicRoughness": {
        "baseColorFactor": [
          0.803921580315,
          0.917647063732,
          0.917647063732,
          0.600000023842
        ],
        "metallicFactor": 0,
        "roughnessFactor": 0.972999998092651
      },
      "emissiveFactor": [
        0,
        0,
        0
      ],
      "alphaMode": "BLEND",
      "doubleSided": true
    },
    {
      "name": "01___Default",
      "pbrMetallicRoughness": {
        "baseColorFactor": [
          1,
          1,
          1,
          1
        ],
        "metallicFactor": 0,
        "roughnessFactor": 0.990000000953674
      },
      "emissiveFactor": [
        0,
        0,
        0
      ],
      "alphaMode": "OPAQUE",
      "doubleSided": false
    },
    {
      "name": "08___Default",
      "pbrMetallicRoughness": {
        "baseColorFactor": [
          0.803921580315,
          0.917647063732,
          0.917647063732,
          0.10000002384200002
        ],
        "metallicFactor": 0,
        "roughnessFactor": 0.972999998092651
      },
      "emissiveFactor": [
        0,
        0,
        0
      ],
      "alphaMode": "BLEND",
      "doubleSided": true
    },
    {
      "name": "04___Default-2",
      "pbrMetallicRoughness": {
        "baseColorFactor": [
          0.019607843831,
          0.019607843831,
          0.019607843831,
          1
        ],
        "metallicFactor": 0,
        "roughnessFactor": 0.945
      },
      "emissiveFactor": [
        0,
        0,
        0
      ],
      "alphaMode": "OPAQUE",
      "doubleSided": false
    }
  ],
  "meshes": [
    {
      "name": "Rectangle003_1",
      "primitives": [
        {
          "attributes": {
            "POSITION": 0,
            "NORMAL": 1,
            "TEXCOORD_0": 2
          },
          "indices": 3,
          "material": 0,
          "mode": 4
        },
        {
          "attributes": {
            "POSITION": 4,
            "NORMAL": 5,
            "TEXCOORD_0": 6
          },
          "indices": 7,
          "material": 1,
          "mode": 4
        }
      ]
    },
    {
      "name": "door001_1",
      "primitives": [
        {
          "attributes": {
            "POSITION": 8,
            "NORMAL": 9,
            "TEXCOORD_0": 10
          },
          "indices": 11,
          "material": 2,
          "mode": 4
        }
      ]
    },
    {
      "name": "Line001_1",
      "primitives": [
        {
          "attributes": {
            "POSITION": 12,
            "NORMAL": 13,
            "TEXCOORD_0": 14
          },
          "indices": 15,
          "material": 3,
          "mode": 4
        }
      ]
    },
    {
      "name": "rool_1",
      "primitives": [
        {
          "attributes": {
            "POSITION": 16,
            "NORMAL": 17,
            "TEXCOORD_0": 18
          },
          "indices": 19,
          "material": 4,
          "mode": 4
        }
      ]
    },
    {
      "name": "roolwindow_1",
      "primitives": [
        {
          "attributes": {
            "POSITION": 20,
            "NORMAL": 21,
            "TEXCOORD_0": 22
          },
          "indices": 23,
          "material": 5,
          "mode": 4
        }
      ]
    },
    {
      "name": "Rectangle040_1",
      "primitives": [
        {
          "attributes": {
            "POSITION": 24,
            "NORMAL": 25,
            "TEXCOORD_0": 26
          },
          "indices": 27,
          "material": 3,
          "mode": 4
        }
      ]
    },
    {
      "name": "Rectangle033_1",
      "primitives": [
        {
          "attributes": {
            "POSITION": 28,
            "NORMAL": 29
          },
          "indices": 30,
          "material": 6,
          "mode": 4
        }
      ]
    },
    {
      "name": "Rectangle034_1",
      "primitives": [
        {
          "attributes": {
            "POSITION": 31,
            "NORMAL": 32
          },
          "indices": 33,
          "material": 7,
          "mode": 4
        },
        {
          "attributes": {
            "POSITION": 34,
            "NORMAL": 35
          },
          "indices": 36,
          "material": 8,
          "mode": 4
        }
      ]
    }
  ],
  "nodes": [
    {
      "name": "Rectangle003",
      "mesh": 0
    },
    {
      "name": "door001",
      "mesh": 1
    },
    {
      "name": "Line001",
      "mesh": 2
    },
    {
      "name": "rool",
      "mesh": 3
    },
    {
      "name": "roolwindow",
      "mesh": 4
    },
    {
      "name": "Rectangle040",
      "mesh": 5
    },
    {
      "name": "Rectangle033",
      "mesh": 6
    },
    {
      "name": "Rectangle034",
      "mesh": 7
    }
  ],
  "samplers": [
    {
      "magFilter": 9729,
      "minFilter": 9986,
      "wrapS": 10497,
      "wrapT": 10497
    }
  ],
  "scene": 0,
  "scenes": [
    {
      "nodes": [
        0,
        1,
        2,
        3,
        4,
        5,
        6,
        7
      ]
    }
  ],
  "textures": [
    {
      "name": "JLv",
      "sampler": 0,
      "source": 0
    },
    {
      "name": "timg",
      "sampler": 0,
      "source": 1
    }
  ]
}
