{
  "accessors": [
    {
      "name": "Tube_4_1_0_positions",
      "componentType": 5126,
      "count": 1168,
      "min": [
        0.45124220848083496,
        2.4905142784118652,
        0.7611918449401855
      ],
      "max": [
        1.693190097808838,
        3.511924982070923,
        1.6827143430709839
      ],
      "type": "VEC3",
      "bufferView": 0,
      "byteOffset": 0
    },
    {
      "name": "Tube_4_1_0_normals",
      "componentType": 5126,
      "count": 1168,
      "min": [
        -0.9995303153991699,
        -0.8116268515586853,
        -0.7655227184295654
      ],
      "max": [
        0.9995303153991699,
        0.8116266131401062,
        0.7655232548713684
      ],
      "type": "VEC3",
      "bufferView": 1,
      "byteOffset": 0
    },
    {
      "name": "Tube_4_1_0_texcoords",
      "componentType": 5126,
      "count": 1168,
      "min": [
        0,
        0
      ],
      "max": [
        1,
        1
      ],
      "type": "VEC2",
      "bufferView": 2,
      "byteOffset": 0
    },
    {
      "name": "Tube_4_1_0_indices",
      "componentType": 5123,
      "count": 3456,
      "min": [
        0
      ],
      "max": [
        1167
      ],
      "type": "SCALAR",
      "bufferView": 3,
      "byteOffset": 0
    },
    {
      "name": "Tube__1_0_positions",
      "componentType": 5126,
      "count": 1168,
      "min": [
        -1.6435304880142212,
        2.4923737049102783,
        0.792033314704895
      ],
      "max": [
        -0.4015825688838959,
        3.513784408569336,
        1.7135558128356934
      ],
      "type": "VEC3",
      "bufferView": 0,
      "byteOffset": 14016
    },
    {
      "name": "Tube__1_0_normals",
      "componentType": 5126,
      "count": 1168,
      "min": [
        -0.9995303153991699,
        -0.8116268515586853,
        -0.7655232548713684
      ],
      "max": [
        0.9995303153991699,
        0.8116269111633301,
        0.7655232548713684
      ],
      "type": "VEC3",
      "bufferView": 1,
      "byteOffset": 14016
    },
    {
      "name": "Tube__1_0_texcoords",
      "componentType": 5126,
      "count": 1168,
      "min": [
        0,
        0
      ],
      "max": [
        1,
        1
      ],
      "type": "VEC2",
      "bufferView": 2,
      "byteOffset": 9344
    },
    {
      "name": "Tube__1_0_indices",
      "componentType": 5123,
      "count": 3456,
      "min": [
        0
      ],
      "max": [
        1167
      ],
      "type": "SCALAR",
      "bufferView": 3,
      "byteOffset": 6912
    },
    {
      "name": "Sphere_2_1_0_positions",
      "componentType": 5126,
      "count": 323,
      "min": [
        0.7907734513282776,
        2.8377151489257812,
        0.6691709160804749
      ],
      "max": [
        1.4742958545684814,
        3.4698894023895264,
        1.3526933193206787
      ],
      "type": "VEC3",
      "bufferView": 0,
      "byteOffset": 28032
    },
    {
      "name": "Sphere_2_1_0_normals",
      "componentType": 5126,
      "count": 323,
      "min": [
        -0.9903496503829956,
        -0.9925428628921509,
        -1
      ],
      "max": [
        1,
        0.9925428628921509,
        1
      ],
      "type": "VEC3",
      "bufferView": 1,
      "byteOffset": 28032
    },
    {
      "name": "Sphere_2_1_0_texcoords",
      "componentType": 5126,
      "count": 323,
      "min": [
        0,
        0
      ],
      "max": [
        1,
        1
      ],
      "type": "VEC2",
      "bufferView": 2,
      "byteOffset": 18688
    },
    {
      "name": "Sphere_2_1_0_indices",
      "componentType": 5123,
      "count": 1584,
      "min": [
        0
      ],
      "max": [
        322
      ],
      "type": "SCALAR",
      "bufferView": 3,
      "byteOffset": 13824
    },
    {
      "name": "Sphere_1_1_0_positions",
      "componentType": 5126,
      "count": 323,
      "min": [
        -1.3483833074569702,
        2.7910945415496826,
        0.7232082486152649
      ],
      "max": [
        -0.6648609638214111,
        3.423269033432007,
        1.4067306518554688
      ],
      "type": "VEC3",
      "bufferView": 0,
      "byteOffset": 31908
    },
    {
      "name": "Sphere_1_1_0_normals",
      "componentType": 5126,
      "count": 323,
      "min": [
        -0.9903496503829956,
        -0.9925425052642822,
        -1
      ],
      "max": [
        1,
        0.9925428628921509,
        1
      ],
      "type": "VEC3",
      "bufferView": 1,
      "byteOffset": 31908
    },
    {
      "name": "Sphere_1_1_0_texcoords",
      "componentType": 5126,
      "count": 323,
      "min": [
        0,
        0
      ],
      "max": [
        1,
        1
      ],
      "type": "VEC2",
      "bufferView": 2,
      "byteOffset": 21272
    },
    {
      "name": "Sphere_1_1_0_indices",
      "componentType": 5123,
      "count": 1584,
      "min": [
        0
      ],
      "max": [
        322
      ],
      "type": "SCALAR",
      "bufferView": 3,
      "byteOffset": 16992
    },
    {
      "name": "Sphere_1_0_positions",
      "componentType": 5126,
      "count": 413,
      "min": [
        -2.5124926567077637,
        1.3909153938293457,
        -2.074342727661133
      ],
      "max": [
        2.4672579765319824,
        5.998846530914307,
        2.685093402862549
      ],
      "type": "VEC3",
      "bufferView": 0,
      "byteOffset": 35784
    },
    {
      "name": "Sphere_1_0_normals",
      "componentType": 5126,
      "count": 413,
      "min": [
        -0.993873119354248,
        -0.9952570796012878,
        -0.9903407096862793
      ],
      "max": [
        0.9933751225471497,
        0.9952570199966431,
        0.9001515507698059
      ],
      "type": "VEC3",
      "bufferView": 1,
      "byteOffset": 35784
    },
    {
      "name": "Sphere_1_0_texcoords",
      "componentType": 5126,
      "count": 413,
      "min": [
        0,
        0
      ],
      "max": [
        1,
        0.9679723978042603
      ],
      "type": "VEC2",
      "bufferView": 2,
      "byteOffset": 23856
    },
    {
      "name": "Sphere_1_0_indices",
      "componentType": 5123,
      "count": 2016,
      "min": [
        0
      ],
      "max": [
        412
      ],
      "type": "SCALAR",
      "bufferView": 3,
      "byteOffset": 20160
    },
    {
      "name": "Cube_1_0_positions",
      "componentType": 5126,
      "count": 314,
      "min": [
        -2.1630702018737793,
        1.3909155130386353,
        0.15812525153160095
      ],
      "max": [
        2.1632139682769775,
        4.599553108215332,
        2.685093402862549
      ],
      "type": "VEC3",
      "bufferView": 0,
      "byteOffset": 40740
    },
    {
      "name": "Cube_1_0_normals",
      "componentType": 5126,
      "count": 314,
      "min": [
        0.017993219196796417,
        -0.6178700923919678,
        0.7860735058784485
      ],
      "max": [
        0.018041228875517845,
        -0.6178132891654968,
        0.7861181497573853
      ],
      "type": "VEC3",
      "bufferView": 1,
      "byteOffset": 40740
    },
    {
      "name": "Cube_1_0_texcoords",
      "componentType": 5126,
      "count": 314,
      "min": [
        0.07840178906917572,
        0.16669094562530518
      ],
      "max": [
        0.9215981960296631,
        0.6487084627151489
      ],
      "type": "VEC2",
      "bufferView": 2,
      "byteOffset": 27160
    },
    {
      "name": "Cube_1_0_indices",
      "componentType": 5123,
      "count": 954,
      "min": [
        0
      ],
      "max": [
        313
      ],
      "type": "SCALAR",
      "bufferView": 3,
      "byteOffset": 24192
    },
    {
      "name": "Connect_1_0_positions",
      "componentType": 5126,
      "count": 4994,
      "min": [
        -1.6618422269821167,
        1.7374050617218018,
        0.05153482034802437
      ],
      "max": [
        1.7073489427566528,
        3.5415287017822266,
        1.7624257802963257
      ],
      "type": "VEC3",
      "bufferView": 0,
      "byteOffset": 44508
    },
    {
      "name": "Connect_1_0_normals",
      "componentType": 5126,
      "count": 4994,
      "min": [
        -0.9998412728309631,
        -0.9990851879119873,
        -0.9997371435165405
      ],
      "max": [
        0.9995908141136169,
        0.999085009098053,
        0.9997371435165405
      ],
      "type": "VEC3",
      "bufferView": 1,
      "byteOffset": 44508
    },
    {
      "name": "Connect_1_0_texcoords",
      "componentType": 5126,
      "count": 4994,
      "min": [
        0,
        0
      ],
      "max": [
        1,
        1
      ],
      "type": "VEC2",
      "bufferView": 2,
      "byteOffset": 29672
    },
    {
      "name": "Connect_1_0_indices",
      "componentType": 5123,
      "count": 25422,
      "min": [
        0
      ],
      "max": [
        4993
      ],
      "type": "SCALAR",
      "bufferView": 3,
      "byteOffset": 26100
    },
    {
      "name": "Capsule_1_0_positions",
      "componentType": 5126,
      "count": 618,
      "min": [
        -3.7542614936828613,
        2.2923669815063477,
        -4.371681213378906
      ],
      "max": [
        3.65983510017395,
        7.8397064208984375,
        3.0424153804779053
      ],
      "type": "VEC3",
      "bufferView": 0,
      "byteOffset": 104436
    },
    {
      "name": "Capsule_1_0_normals",
      "componentType": 5126,
      "count": 618,
      "min": [
        -0.9961947202682495,
        -0.8964412212371826,
        -1
      ],
      "max": [
        1,
        0.5003743171691895,
        1
      ],
      "type": "VEC3",
      "bufferView": 1,
      "byteOffset": 104436
    },
    {
      "name": "Capsule_1_0_texcoords",
      "componentType": 5126,
      "count": 618,
      "min": [
        0,
        0.30951327085494995
      ],
      "max": [
        1,
        0.849319577217102
      ],
      "type": "VEC2",
      "bufferView": 2,
      "byteOffset": 69624
    },
    {
      "name": "Capsule_1_0_indices",
      "componentType": 5123,
      "count": 3120,
      "min": [
        0
      ],
      "max": [
        617
      ],
      "type": "SCALAR",
      "bufferView": 3,
      "byteOffset": 76944
    },
    {
      "name": "Cube_5_1_0_positions",
      "componentType": 5126,
      "count": 36,
      "min": [
        -3.251849889755249,
        7.8397064208984375,
        -3.869269847869873
      ],
      "max": [
        3.157423496246338,
        7.8397064208984375,
        2.540003776550293
      ],
      "type": "VEC3",
      "bufferView": 0,
      "byteOffset": 111852
    },
    {
      "name": "Cube_5_1_0_normals",
      "componentType": 5126,
      "count": 36,
      "min": [
        0,
        1,
        0
      ],
      "max": [
        0,
        1,
        0
      ],
      "type": "VEC3",
      "bufferView": 1,
      "byteOffset": 111852
    },
    {
      "name": "Cube_5_1_0_texcoords",
      "componentType": 5126,
      "count": 36,
      "min": [
        0.11000122129917145,
        0.1406974196434021
      ],
      "max": [
        0.8899987936019897,
        0.8593025207519531
      ],
      "type": "VEC2",
      "bufferView": 2,
      "byteOffset": 74568
    },
    {
      "name": "Cube_5_1_0_indices",
      "componentType": 5123,
      "count": 102,
      "min": [
        0
      ],
      "max": [
        35
      ],
      "type": "SCALAR",
      "bufferView": 3,
      "byteOffset": 83184
    },
    {
      "name": "Cylinder_1_0_positions",
      "componentType": 5126,
      "count": 126,
      "min": [
        -2.3767664432525635,
        2.2923669815063477,
        -4.371681213378906
      ],
      "max": [
        2.2823400497436523,
        5.800457954406738,
        3.0424153804779053
      ],
      "type": "VEC3",
      "bufferView": 0,
      "byteOffset": 112284
    },
    {
      "name": "Cylinder_1_0_normals",
      "componentType": 5126,
      "count": 126,
      "min": [
        -0.9995032548904419,
        -1,
        -0.0000042855708670686
      ],
      "max": [
        0.9955556392669678,
        0.6036090850830078,
        1.7410746977475355e-7
      ],
      "type": "VEC3",
      "bufferView": 1,
      "byteOffset": 112284
    },
    {
      "name": "Cylinder_1_0_texcoords",
      "componentType": 5126,
      "count": 126,
      "min": [
        0,
        0.2562188506126404
      ],
      "max": [
        1,
        0.7437810897827148
      ],
      "type": "VEC2",
      "bufferView": 2,
      "byteOffset": 74856
    },
    {
      "name": "Cylinder_1_0_indices",
      "componentType": 5123,
      "count": 366,
      "min": [
        0
      ],
      "max": [
        125
      ],
      "type": "SCALAR",
      "bufferView": 3,
      "byteOffset": 83388
    },
    {
      "name": "Tube_1_0_positions",
      "componentType": 5126,
      "count": 218,
      "min": [
        -4.821108341217041,
        5.911329746246338,
        -5.438528060913086
      ],
      "max": [
        4.726681709289551,
        7.945897579193115,
        4.109261989593506
      ],
      "type": "VEC3",
      "bufferView": 0,
      "byteOffset": 113796
    },
    {
      "name": "Tube_1_0_normals",
      "componentType": 5126,
      "count": 218,
      "min": [
        -0.9961946606636047,
        -1,
        -0.9995750188827515
      ],
      "max": [
        0.9995750188827515,
        1,
        0.9995750188827515
      ],
      "type": "VEC3",
      "bufferView": 1,
      "byteOffset": 113796
    },
    {
      "name": "Tube_1_0_texcoords",
      "componentType": 5126,
      "count": 218,
      "min": [
        0,
        0
      ],
      "max": [
        1,
        1
      ],
      "type": "VEC2",
      "bufferView": 2,
      "byteOffset": 75864
    },
    {
      "name": "Tube_1_0_indices",
      "componentType": 5123,
      "count": 432,
      "min": [
        0
      ],
      "max": [
        217
      ],
      "type": "SCALAR",
      "bufferView": 3,
      "byteOffset": 84120
    }
  ],
  "asset": {
    "generator": "obj2gltf",
    "version": "2.0"
  },
  "buffers": [
    {
      "name": "camera",
      "byteLength": 395416,
      "uri": "data:application/octet-stream;base64,"
    }
  ],
  "bufferViews": [
    {
      "name": "bufferView_0",
      "buffer": 0,
      "byteLength": 116412,
      "byteOffset": 0,
      "byteStride": 12,
      "target": 34962
    },
    {
      "name": "bufferView_1",
      "buffer": 0,
      "byteLength": 116412,
      "byteOffset": 116412,
      "byteStride": 12,
      "target": 34962
    },
    {
      "name": "bufferView_2",
      "buffer": 0,
      "byteLength": 77608,
      "byteOffset": 232824,
      "byteStride": 8,
      "target": 34962
    },
    {
      "name": "bufferView_3",
      "buffer": 0,
      "byteLength": 84984,
      "byteOffset": 310432,
      "target": 34963
    }
  ],
  "materials": [
    {
      "name": "Mat.3",
      "pbrMetallicRoughness": {
        "baseColorFactor": [
          0.03750000149012,
          0.02500000037253,
          0.10000000149012,
          1
        ],
        "metallicFactor": 0,
        "roughnessFactor": 0.930961
      },
      "emissiveFactor": [
        0,
        0,
        0
      ],
      "alphaMode": "OPAQUE",
      "doubleSided": false
    },
    {
      "name": "Mat",
      "pbrMetallicRoughness": {
        "baseColorFactor": [
          0.95999997854233,
          0.95999997854233,
          0.95999997854233,
          1
        ],
        "metallicFactor": 0,
        "roughnessFactor": 0.948105
      },
      "emissiveFactor": [
        0,
        0,
        0
      ],
      "alphaMode": "OPAQUE",
      "doubleSided": false
    },
    {
      "name": "default",
      "pbrMetallicRoughness": {
        "baseColorFactor": [
          1,
          1,
          1,
          1
        ],
        "metallicFactor": 0,
        "roughnessFactor": 1
      },
      "emissiveFactor": [
        0,
        0,
        0
      ],
      "alphaMode": "OPAQUE",
      "doubleSided": false
    }
  ],
  "meshes": [
    {
      "name": "Tube_4_1",
      "primitives": [
        {
          "attributes": {
            "POSITION": 0,
            "NORMAL": 1,
            "TEXCOORD_0": 2
          },
          "indices": 3,
          "material": 0,
          "mode": 4
        }
      ]
    },
    {
      "name": "Tube__1",
      "primitives": [
        {
          "attributes": {
            "POSITION": 4,
            "NORMAL": 5,
            "TEXCOORD_0": 6
          },
          "indices": 7,
          "material": 0,
          "mode": 4
        }
      ]
    },
    {
      "name": "Sphere_2_1",
      "primitives": [
        {
          "attributes": {
            "POSITION": 8,
            "NORMAL": 9,
            "TEXCOORD_0": 10
          },
          "indices": 11,
          "material": 1,
          "mode": 4
        }
      ]
    },
    {
      "name": "Sphere_1_1",
      "primitives": [
        {
          "attributes": {
            "POSITION": 12,
            "NORMAL": 13,
            "TEXCOORD_0": 14
          },
          "indices": 15,
          "material": 1,
          "mode": 4
        }
      ]
    },
    {
      "name": "Sphere_1",
      "primitives": [
        {
          "attributes": {
            "POSITION": 16,
            "NORMAL": 17,
            "TEXCOORD_0": 18
          },
          "indices": 19,
          "material": 1,
          "mode": 4
        }
      ]
    },
    {
      "name": "Cube_1",
      "primitives": [
        {
          "attributes": {
            "POSITION": 20,
            "NORMAL": 21,
            "TEXCOORD_0": 22
          },
          "indices": 23,
          "material": 1,
          "mode": 4
        }
      ]
    },
    {
      "name": "Connect_1",
      "primitives": [
        {
          "attributes": {
            "POSITION": 24,
            "NORMAL": 25,
            "TEXCOORD_0": 26
          },
          "indices": 27,
          "material": 2,
          "mode": 4
        }
      ]
    },
    {
      "name": "Capsule_1",
      "primitives": [
        {
          "attributes": {
            "POSITION": 28,
            "NORMAL": 29,
            "TEXCOORD_0": 30
          },
          "indices": 31,
          "material": 1,
          "mode": 4
        }
      ]
    },
    {
      "name": "Cube_5_1",
      "primitives": [
        {
          "attributes": {
            "POSITION": 32,
            "NORMAL": 33,
            "TEXCOORD_0": 34
          },
          "indices": 35,
          "material": 2,
          "mode": 4
        }
      ]
    },
    {
      "name": "Cylinder_1",
      "primitives": [
        {
          "attributes": {
            "POSITION": 36,
            "NORMAL": 37,
            "TEXCOORD_0": 38
          },
          "indices": 39,
          "material": 2,
          "mode": 4
        }
      ]
    },
    {
      "name": "Tube_1",
      "primitives": [
        {
          "attributes": {
            "POSITION": 40,
            "NORMAL": 41,
            "TEXCOORD_0": 42
          },
          "indices": 43,
          "material": 1,
          "mode": 4
        }
      ]
    }
  ],
  "nodes": [
    {
      "name": "Tube_4",
      "mesh": 0
    },
    {
      "name": "Tube_",
      "mesh": 1
    },
    {
      "name": "Sphere_2",
      "mesh": 2
    },
    {
      "name": "Sphere_1",
      "mesh": 3
    },
    {
      "name": "Sphere",
      "mesh": 4
    },
    {
      "name": "Cube",
      "mesh": 5
    },
    {
      "name": "Connect",
      "mesh": 6
    },
    {
      "name": "Capsule",
      "mesh": 7
    },
    {
      "name": "Cube_5",
      "mesh": 8
    },
    {
      "name": "Cylinder",
      "mesh": 9
    },
    {
      "name": "Tube",
      "mesh": 10
    }
  ],
  "scene": 0,
  "scenes": [
    {
      "nodes": [
        0,
        1,
        2,
        3,
        4,
        5,
        6,
        7,
        8,
        9,
        10
      ]
    }
  ]
}
