{
  "accessors": [
    {
      "name": "MCP_play_back_015_1_0_positions",
      "componentType": 5126,
      "count": 1653,
      "min": [
        -35.948081970214844,
        4.4013190269470215,
        -27.617748260498047
      ],
      "max": [
        -32.15230178833008,
        8.751441955566406,
        -26.567447662353516
      ],
      "type": "VEC3",
      "bufferView": 0,
      "byteOffset": 0
    },
    {
      "name": "MCP_play_back_015_1_0_normals",
      "componentType": 5126,
      "count": 1653,
      "min": [
        -0.9997113347053528,
        -0.32432791590690613,
        -0.9998218417167664
      ],
      "max": [
        0.999711275100708,
        0.3224640488624573,
        0.9998798966407776
      ],
      "type": "VEC3",
      "bufferView": 1,
      "byteOffset": 0
    },
    {
      "name": "MCP_play_back_015_1_0_texcoords",
      "componentType": 5126,
      "count": 1653,
      "min": [
        -2.6089770793914795,
        -3.129901885986328
      ],
      "max": [
        3.6089770793914795,
        4.1299052238464355
      ],
      "type": "VEC2",
      "bufferView": 2,
      "byteOffset": 0
    },
    {
      "name": "MCP_play_back_015_1_0_indices",
      "componentType": 5123,
      "count": 9408,
      "min": [
        0
      ],
      "max": [
        1652
      ],
      "type": "SCALAR",
      "bufferView": 3,
      "byteOffset": 0
    },
    {
      "name": "MCP_play_base_015_1_0_positions",
      "componentType": 5126,
      "count": 29020,
      "min": [
        -36.5722541809082,
        2.5213160514831543,
        -28.061782836914062
      ],
      "max": [
        -31.52813148498535,
        8.894872665405273,
        -23.400836944580078
      ],
      "type": "VEC3",
      "bufferView": 0,
      "byteOffset": 19836
    },
    {
      "name": "MCP_play_base_015_1_0_normals",
      "componentType": 5126,
      "count": 29020,
      "min": [
        -1,
        -1,
        -1
      ],
      "max": [
        1,
        1,
        1
      ],
      "type": "VEC3",
      "bufferView": 1,
      "byteOffset": 19836
    },
    {
      "name": "MCP_play_base_015_1_0_texcoords",
      "componentType": 5126,
      "count": 29020,
      "min": [
        -12.809715270996094,
        -22.761066436767578
      ],
      "max": [
        2896.77783203125,
        294.68121337890625
      ],
      "type": "VEC2",
      "bufferView": 2,
      "byteOffset": 13224
    },
    {
      "name": "MCP_play_base_015_1_0_indices",
      "componentType": 5123,
      "count": 56388,
      "min": [
        0
      ],
      "max": [
        29019
      ],
      "type": "SCALAR",
      "bufferView": 3,
      "byteOffset": 18816
    },
    {
      "name": "MCP_play_cord_015_1_0_positions",
      "componentType": 5126,
      "count": 738,
      "min": [
        -35.9503173828125,
        4.414854049682617,
        -27.614580154418945
      ],
      "max": [
        -32.15007400512695,
        8.738373756408691,
        -26.717103958129883
      ],
      "type": "VEC3",
      "bufferView": 0,
      "byteOffset": 368076
    },
    {
      "name": "MCP_play_cord_015_1_0_normals",
      "componentType": 5126,
      "count": 738,
      "min": [
        -0.9734359383583069,
        -0.998554527759552,
        -0.9932940006256104
      ],
      "max": [
        0.9734539985656738,
        0.9983181357383728,
        0.9933796525001526
      ],
      "type": "VEC3",
      "bufferView": 1,
      "byteOffset": 368076
    },
    {
      "name": "MCP_play_cord_015_1_0_texcoords",
      "componentType": 5126,
      "count": 738,
      "min": [
        0,
        0.00839999970048666
      ],
      "max": [
        1,
        0.991599977016449
      ],
      "type": "VEC2",
      "bufferView": 2,
      "byteOffset": 245384
    },
    {
      "name": "MCP_play_cord_015_1_0_indices",
      "componentType": 5123,
      "count": 3840,
      "min": [
        0
      ],
      "max": [
        737
      ],
      "type": "SCALAR",
      "bufferView": 3,
      "byteOffset": 131592
    },
    {
      "name": "MCP_play_cross_piece_015_1_0_positions",
      "componentType": 5126,
      "count": 4993,
      "min": [
        -36.465274810791016,
        0.391431987285614,
        -28.18708610534668
      ],
      "max": [
        -31.106279373168945,
        2.7495501041412354,
        -22.406099319458008
      ],
      "type": "VEC3",
      "bufferView": 0,
      "byteOffset": 376932
    },
    {
      "name": "MCP_play_cross_piece_015_1_0_normals",
      "componentType": 5126,
      "count": 4993,
      "min": [
        -1,
        -1,
        -1
      ],
      "max": [
        1,
        1,
        1
      ],
      "type": "VEC3",
      "bufferView": 1,
      "byteOffset": 376932
    },
    {
      "name": "MCP_play_cross_piece_015_1_0_texcoords",
      "componentType": 5126,
      "count": 4993,
      "min": [
        0,
        0
      ],
      "max": [
        1.0142589807510376,
        1.0219199657440186
      ],
      "type": "VEC2",
      "bufferView": 2,
      "byteOffset": 251288
    },
    {
      "name": "MCP_play_cross_piece_015_1_0_indices",
      "componentType": 5123,
      "count": 19386,
      "min": [
        0
      ],
      "max": [
        4992
      ],
      "type": "SCALAR",
      "bufferView": 3,
      "byteOffset": 139272
    },
    {
      "name": "MCP_play_facing_015_1_0_positions",
      "componentType": 5126,
      "count": 1038,
      "min": [
        -35.95014953613281,
        4.385560035705566,
        -27.623340606689453
      ],
      "max": [
        -32.150238037109375,
        8.766840934753418,
        -26.715791702270508
      ],
      "type": "VEC3",
      "bufferView": 0,
      "byteOffset": 436848
    },
    {
      "name": "MCP_play_facing_015_1_0_normals",
      "componentType": 5126,
      "count": 1038,
      "min": [
        -0.9999920725822449,
        -0.9944460391998291,
        -0.9999971985816956
      ],
      "max": [
        0.9999920725822449,
        0.9841375350952148,
        0.9993374943733215
      ],
      "type": "VEC3",
      "bufferView": 1,
      "byteOffset": 436848
    },
    {
      "name": "MCP_play_facing_015_1_0_texcoords",
      "componentType": 5126,
      "count": 1038,
      "min": [
        -12.957466125488281,
        -12.9525146484375
      ],
      "max": [
        13.957466125488281,
        13.954578399658203
      ],
      "type": "VEC2",
      "bufferView": 2,
      "byteOffset": 291232
    },
    {
      "name": "MCP_play_facing_015_1_0_indices",
      "componentType": 5123,
      "count": 4368,
      "min": [
        0
      ],
      "max": [
        1037
      ],
      "type": "SCALAR",
      "bufferView": 3,
      "byteOffset": 178044
    },
    {
      "name": "MCP_play_hanger_015_1_0_positions",
      "componentType": 5126,
      "count": 209,
      "min": [
        -35.690372467041016,
        8.455849647521973,
        -28.26911735534668
      ],
      "max": [
        -32.41000747680664,
        8.843201637268066,
        -27.994647979736328
      ],
      "type": "VEC3",
      "bufferView": 0,
      "byteOffset": 449304
    },
    {
      "name": "MCP_play_hanger_015_1_0_normals",
      "componentType": 5126,
      "count": 209,
      "min": [
        -1,
        -0.9979689121246338,
        -0.9971832036972046
      ],
      "max": [
        1,
        0.9774659276008606,
        0.9964002966880798
      ],
      "type": "VEC3",
      "bufferView": 1,
      "byteOffset": 449304
    },
    {
      "name": "MCP_play_hanger_015_1_0_texcoords",
      "componentType": 5126,
      "count": 209,
      "min": [
        0,
        0.5866510272026062
      ],
      "max": [
        3.0020880699157715,
        1.0078649520874023
      ],
      "type": "VEC2",
      "bufferView": 2,
      "byteOffset": 299536
    },
    {
      "name": "MCP_play_hanger_015_1_0_indices",
      "componentType": 5123,
      "count": 1038,
      "min": [
        0
      ],
      "max": [
        208
      ],
      "type": "SCALAR",
      "bufferView": 3,
      "byteOffset": 186780
    },
    {
      "name": "MCP_play_headrest_pad_015_1_0_positions",
      "componentType": 5126,
      "count": 2533,
      "min": [
        -35.16752624511719,
        9.126960754394531,
        -28.012386322021484
      ],
      "max": [
        -32.932861328125,
        10.439000129699707,
        -27.495006561279297
      ],
      "type": "VEC3",
      "bufferView": 0,
      "byteOffset": 451812
    },
    {
      "name": "MCP_play_headrest_pad_015_1_0_normals",
      "componentType": 5126,
      "count": 2533,
      "min": [
        -0.9999148845672607,
        -0.999785304069519,
        -0.9993732571601868
      ],
      "max": [
        0.9999147653579712,
        0.999999463558197,
        0.8198729157447815
      ],
      "type": "VEC3",
      "bufferView": 1,
      "byteOffset": 451812
    },
    {
      "name": "MCP_play_headrest_pad_015_1_0_texcoords",
      "componentType": 5126,
      "count": 2533,
      "min": [
        -0.5668879747390747,
        -1.3061829805374146
      ],
      "max": [
        1.5529439449310303,
        2.306183099746704
      ],
      "type": "VEC2",
      "bufferView": 2,
      "byteOffset": 301208
    },
    {
      "name": "MCP_play_headrest_pad_015_1_0_indices",
      "componentType": 5123,
      "count": 12480,
      "min": [
        0
      ],
      "max": [
        2532
      ],
      "type": "SCALAR",
      "bufferView": 3,
      "byteOffset": 188856
    },
    {
      "name": "MCP_play_headrest_015_1_0_positions",
      "componentType": 5126,
      "count": 1984,
      "min": [
        -35.17378616333008,
        8.525832176208496,
        -28.18445587158203
      ],
      "max": [
        -32.92660140991211,
        10.392950057983398,
        -27.628337860107422
      ],
      "type": "VEC3",
      "bufferView": 0,
      "byteOffset": 482208
    },
    {
      "name": "MCP_play_headrest_015_1_0_normals",
      "componentType": 5126,
      "count": 1984,
      "min": [
        -1,
        -1,
        -0.999984085559845
      ],
      "max": [
        1,
        0.9997974634170532,
        0.9993153214454651
      ],
      "type": "VEC3",
      "bufferView": 1,
      "byteOffset": 482208
    },
    {
      "name": "MCP_play_headrest_015_1_0_texcoords",
      "componentType": 5126,
      "count": 1984,
      "min": [
        0,
        -4.952755928039551
      ],
      "max": [
        2.5147199630737305,
        1.1122150421142578
      ],
      "type": "VEC2",
      "bufferView": 2,
      "byteOffset": 321472
    },
    {
      "name": "MCP_play_headrest_015_1_0_indices",
      "componentType": 5123,
      "count": 10182,
      "min": [
        0
      ],
      "max": [
        1983
      ],
      "type": "SCALAR",
      "bufferView": 3,
      "byteOffset": 213816
    },
    {
      "name": "MCP_play_seat_015_1_0_positions",
      "componentType": 5126,
      "count": 2865,
      "min": [
        -36.072105407714844,
        3.409404993057251,
        -26.932096481323242
      ],
      "max": [
        -32.02828598022461,
        4.175556182861328,
        -23.391616821289062
      ],
      "type": "VEC3",
      "bufferView": 0,
      "byteOffset": 506016
    },
    {
      "name": "MCP_play_seat_015_1_0_normals",
      "componentType": 5126,
      "count": 2865,
      "min": [
        -0.9997774958610535,
        -0.16843098402023315,
        -0.9997288584709167
      ],
      "max": [
        0.9997778534889221,
        1,
        0.9995838403701782
      ],
      "type": "VEC3",
      "bufferView": 1,
      "byteOffset": 506016
    },
    {
      "name": "MCP_play_seat_015_1_0_texcoords",
      "componentType": 5126,
      "count": 2865,
      "min": [
        -2.7706899642944336,
        -2.308912992477417
      ],
      "max": [
        3.7706899642944336,
        3.347538948059082
      ],
      "type": "VEC2",
      "bufferView": 2,
      "byteOffset": 337344
    },
    {
      "name": "MCP_play_seat_015_1_0_indices",
      "componentType": 5123,
      "count": 14688,
      "min": [
        0
      ],
      "max": [
        2864
      ],
      "type": "SCALAR",
      "bufferView": 3,
      "byteOffset": 234180
    }
  ],
  "asset": {
    "generator": "obj2gltf",
    "version": "2.0"
  },
  "buffers": [
    {
      "name": "chair",
      "byteLength": 1920892,
      "uri": "data:application/octet-stream;base64,"
    }
  ],
  "bufferViews": [
    {
      "name": "bufferView_0",
      "buffer": 0,
      "byteLength": 540396,
      "byteOffset": 0,
      "byteStride": 12,
      "target": 34962
    },
    {
      "name": "bufferView_1",
      "buffer": 0,
      "byteLength": 540396,
      "byteOffset": 540396,
      "byteStride": 12,
      "target": 34962
    },
    {
      "name": "bufferView_2",
      "buffer": 0,
      "byteLength": 360264,
      "byteOffset": 1080792,
      "byteStride": 8,
      "target": 34962
    },
    {
      "name": "bufferView_3",
      "buffer": 0,
      "byteLength": 263556,
      "byteOffset": 1441056,
      "target": 34963
    },
    {
      "buffer": 0,
      "byteOffset": 1704612,
      "byteLength": 216279
    }
  ],
  "images": [
    {
      "name": "cloth",
      "mimeType": "image/jpeg",
      "bufferView": 4
    }
  ],
  "materials": [
    {
      "name": "01___Default",
      "pbrMetallicRoughness": {
        "baseColorTexture": {
          "index": 0
        },
        "baseColorFactor": [
          1,
          1,
          1,
          1
        ],
        "metallicFactor": 0,
        "roughnessFactor": 0.990000001
      },
      "emissiveFactor": [
        0,
        0,
        0
      ],
      "alphaMode": "OPAQUE",
      "doubleSided": false
    },
    {
      "name": "14___Default",
      "pbrMetallicRoughness": {
        "baseColorFactor": [
          0.027451,
          0.027451,
          0.027451,
          1
        ],
        "metallicFactor": 0,
        "roughnessFactor": 0.990000001
      },
      "emissiveFactor": [
        0,
        0,
        0
      ],
      "alphaMode": "OPAQUE",
      "doubleSided": false
    }
  ],
  "meshes": [
    {
      "name": "MCP_play_back_015_1",
      "primitives": [
        {
          "attributes": {
            "POSITION": 0,
            "NORMAL": 1,
            "TEXCOORD_0": 2
          },
          "indices": 3,
          "material": 0,
          "mode": 4
        }
      ]
    },
    {
      "name": "MCP_play_base_015_1",
      "primitives": [
        {
          "attributes": {
            "POSITION": 4,
            "NORMAL": 5,
            "TEXCOORD_0": 6
          },
          "indices": 7,
          "material": 1,
          "mode": 4
        }
      ]
    },
    {
      "name": "MCP_play_cord_015_1",
      "primitives": [
        {
          "attributes": {
            "POSITION": 8,
            "NORMAL": 9,
            "TEXCOORD_0": 10
          },
          "indices": 11,
          "material": 1,
          "mode": 4
        }
      ]
    },
    {
      "name": "MCP_play_cross_piece_015_1",
      "primitives": [
        {
          "attributes": {
            "POSITION": 12,
            "NORMAL": 13,
            "TEXCOORD_0": 14
          },
          "indices": 15,
          "material": 1,
          "mode": 4
        }
      ]
    },
    {
      "name": "MCP_play_facing_015_1",
      "primitives": [
        {
          "attributes": {
            "POSITION": 16,
            "NORMAL": 17,
            "TEXCOORD_0": 18
          },
          "indices": 19,
          "material": 1,
          "mode": 4
        }
      ]
    },
    {
      "name": "MCP_play_hanger_015_1",
      "primitives": [
        {
          "attributes": {
            "POSITION": 20,
            "NORMAL": 21,
            "TEXCOORD_0": 22
          },
          "indices": 23,
          "material": 1,
          "mode": 4
        }
      ]
    },
    {
      "name": "MCP_play_headrest_pad_015_1",
      "primitives": [
        {
          "attributes": {
            "POSITION": 24,
            "NORMAL": 25,
            "TEXCOORD_0": 26
          },
          "indices": 27,
          "material": 0,
          "mode": 4
        }
      ]
    },
    {
      "name": "MCP_play_headrest_015_1",
      "primitives": [
        {
          "attributes": {
            "POSITION": 28,
            "NORMAL": 29,
            "TEXCOORD_0": 30
          },
          "indices": 31,
          "material": 1,
          "mode": 4
        }
      ]
    },
    {
      "name": "MCP_play_seat_015_1",
      "primitives": [
        {
          "attributes": {
            "POSITION": 32,
            "NORMAL": 33,
            "TEXCOORD_0": 34
          },
          "indices": 35,
          "material": 0,
          "mode": 4
        }
      ]
    }
  ],
  "nodes": [
    {
      "name": "MCP_play_back_015",
      "mesh": 0
    },
    {
      "name": "MCP_play_base_015",
      "mesh": 1
    },
    {
      "name": "MCP_play_cord_015",
      "mesh": 2
    },
    {
      "name": "MCP_play_cross_piece_015",
      "mesh": 3
    },
    {
      "name": "MCP_play_facing_015",
      "mesh": 4
    },
    {
      "name": "MCP_play_hanger_015",
      "mesh": 5
    },
    {
      "name": "MCP_play_headrest_pad_015",
      "mesh": 6
    },
    {
      "name": "MCP_play_headrest_015",
      "mesh": 7
    },
    {
      "name": "MCP_play_seat_015",
      "mesh": 8
    }
  ],
  "samplers": [
    {
      "magFilter": 9729,
      "minFilter": 9986,
      "wrapS": 10497,
      "wrapT": 10497
    }
  ],
  "scene": 0,
  "scenes": [
    {
      "nodes": [
        0,
        1,
        2,
        3,
        4,
        5,
        6,
        7,
        8
      ]
    }
  ],
  "textures": [
    {
      "name": "cloth",
      "sampler": 0,
      "source": 0
    }
  ]
}
