{
  "accessors": [
    {
      "name": "Rectangle011_1_0_positions",
      "componentType": 5126,
      "count": 8,
      "min": [
        47.75082778930664,
        0.5504199862480164,
        -29.724445343017578
      ],
      "max": [
        47.885250091552734,
        15.76927375793457,
        -29.63162612915039
      ],
      "type": "VEC3",
      "bufferView": 0,
      "byteOffset": 0
    },
    {
      "name": "Rectangle011_1_0_normals",
      "componentType": 5126,
      "count": 8,
      "min": [
        -0.5773502588272095,
        -0.5773502588272095,
        -0.5773502588272095
      ],
      "max": [
        0.5773502588272095,
        0.5773502588272095,
        0.5773502588272095
      ],
      "type": "VEC3",
      "bufferView": 1,
      "byteOffset": 0
    },
    {
      "name": "Rectangle011_1_0_indices",
      "componentType": 5123,
      "count": 36,
      "min": [
        0
      ],
      "max": [
        7
      ],
      "type": "SCALAR",
      "bufferView": 3,
      "byteOffset": 0
    },
    {
      "name": "Rectangle010_1_0_positions",
      "componentType": 5126,
      "count": 8,
      "min": [
        47.88525390625,
        0.5504199862480164,
        -29.724445343017578
      ],
      "max": [
        47.93006134033203,
        15.76927375793457,
        -29.63162612915039
      ],
      "type": "VEC3",
      "bufferView": 0,
      "byteOffset": 96
    },
    {
      "name": "Rectangle010_1_0_normals",
      "componentType": 5126,
      "count": 8,
      "min": [
        -0.5773502588272095,
        -0.5773502588272095,
        -0.5773502588272095
      ],
      "max": [
        0.5773502588272095,
        0.5773502588272095,
        0.5773502588272095
      ],
      "type": "VEC3",
      "bufferView": 1,
      "byteOffset": 96
    },
    {
      "name": "Rectangle010_1_0_indices",
      "componentType": 5123,
      "count": 36,
      "min": [
        0
      ],
      "max": [
        7
      ],
      "type": "SCALAR",
      "bufferView": 3,
      "byteOffset": 72
    },
    {
      "name": "Rectangle009_1_0_positions",
      "componentType": 5126,
      "count": 8,
      "min": [
        51.40736770629883,
        0.5504199862480164,
        -29.724445343017578
      ],
      "max": [
        51.54179000854492,
        15.76927375793457,
        -29.63162612915039
      ],
      "type": "VEC3",
      "bufferView": 0,
      "byteOffset": 192
    },
    {
      "name": "Rectangle009_1_0_normals",
      "componentType": 5126,
      "count": 8,
      "min": [
        -0.5773502588272095,
        -0.5773502588272095,
        -0.5773502588272095
      ],
      "max": [
        0.5773502588272095,
        0.5773502588272095,
        0.5773502588272095
      ],
      "type": "VEC3",
      "bufferView": 1,
      "byteOffset": 192
    },
    {
      "name": "Rectangle009_1_0_indices",
      "componentType": 5123,
      "count": 36,
      "min": [
        0
      ],
      "max": [
        7
      ],
      "type": "SCALAR",
      "bufferView": 3,
      "byteOffset": 144
    },
    {
      "name": "Rectangle008_1_0_positions",
      "componentType": 5126,
      "count": 8,
      "min": [
        51.36255645751953,
        0.5504199862480164,
        -29.724445343017578
      ],
      "max": [
        51.40736389160156,
        15.76927375793457,
        -29.63162612915039
      ],
      "type": "VEC3",
      "bufferView": 0,
      "byteOffset": 288
    },
    {
      "name": "Rectangle008_1_0_normals",
      "componentType": 5126,
      "count": 8,
      "min": [
        -0.5773502588272095,
        -0.5773502588272095,
        -0.5773502588272095
      ],
      "max": [
        0.5773502588272095,
        0.5773502588272095,
        0.5773502588272095
      ],
      "type": "VEC3",
      "bufferView": 1,
      "byteOffset": 288
    },
    {
      "name": "Rectangle008_1_0_indices",
      "componentType": 5123,
      "count": 36,
      "min": [
        0
      ],
      "max": [
        7
      ],
      "type": "SCALAR",
      "bufferView": 3,
      "byteOffset": 216
    },
    {
      "name": "Box001_1_0_positions",
      "componentType": 5126,
      "count": 96,
      "min": [
        47.31937026977539,
        0.4489609897136688,
        -35.254638671875
      ],
      "max": [
        51.97336959838867,
        15.918841361999512,
        -29.577741622924805
      ],
      "type": "VEC3",
      "bufferView": 0,
      "byteOffset": 384
    },
    {
      "name": "Box001_1_0_normals",
      "componentType": 5126,
      "count": 96,
      "min": [
        -1,
        -1,
        -1
      ],
      "max": [
        1,
        1,
        1
      ],
      "type": "VEC3",
      "bufferView": 1,
      "byteOffset": 384
    },
    {
      "name": "Box001_1_0_texcoords",
      "componentType": 5126,
      "count": 96,
      "min": [
        0,
        0
      ],
      "max": [
        1,
        1
      ],
      "type": "VEC2",
      "bufferView": 2,
      "byteOffset": 0
    },
    {
      "name": "Box001_1_0_indices",
      "componentType": 5123,
      "count": 288,
      "min": [
        0
      ],
      "max": [
        95
      ],
      "type": "SCALAR",
      "bufferView": 3,
      "byteOffset": 288
    },
    {
      "name": "Box001_1_1_positions",
      "componentType": 5126,
      "count": 460,
      "min": [
        47.36354064941406,
        0.5504209995269775,
        -29.724443435668945
      ],
      "max": [
        51.92919921875,
        15.769275665283203,
        -29.603723526000977
      ],
      "type": "VEC3",
      "bufferView": 0,
      "byteOffset": 1536
    },
    {
      "name": "Box001_1_1_normals",
      "componentType": 5126,
      "count": 460,
      "min": [
        -0.8871431350708008,
        -0.759472131729126,
        -0.9906945824623108
      ],
      "max": [
        0.8940461277961731,
        0.893744707107544,
        0.8800117373466492
      ],
      "type": "VEC3",
      "bufferView": 1,
      "byteOffset": 1536
    },
    {
      "name": "Box001_1_1_texcoords",
      "componentType": 5126,
      "count": 460,
      "min": [
        -67.99163818359375,
        0.2913359999656677
      ],
      "max": [
        2.874535083770752,
        1.8274730443954468
      ],
      "type": "VEC2",
      "bufferView": 2,
      "byteOffset": 768
    },
    {
      "name": "Box001_1_1_indices",
      "componentType": 5123,
      "count": 3261,
      "min": [
        0
      ],
      "max": [
        459
      ],
      "type": "SCALAR",
      "bufferView": 3,
      "byteOffset": 864
    },
    {
      "name": "Rectangle035_1_0_positions",
      "componentType": 5126,
      "count": 16,
      "min": [
        47.36354064941406,
        0.5504189729690552,
        -35.20075988769531
      ],
      "max": [
        51.92919921875,
        15.769271850585938,
        -29.724443435668945
      ],
      "type": "VEC3",
      "bufferView": 0,
      "byteOffset": 7056
    },
    {
      "name": "Rectangle035_1_0_normals",
      "componentType": 5126,
      "count": 16,
      "min": [
        -0.5773502588272095,
        -0.5773502588272095,
        -0.5773502588272095
      ],
      "max": [
        0.5773502588272095,
        0.5773502588272095,
        0.5773502588272095
      ],
      "type": "VEC3",
      "bufferView": 1,
      "byteOffset": 7056
    },
    {
      "name": "Rectangle035_1_0_indices",
      "componentType": 5123,
      "count": 72,
      "min": [
        0
      ],
      "max": [
        15
      ],
      "type": "SCALAR",
      "bufferView": 3,
      "byteOffset": 7388
    },
    {
      "name": "Box003_1_0_positions",
      "componentType": 5126,
      "count": 160,
      "min": [
        47.39054870605469,
        1.8060150146484375,
        -33.95121765136719
      ],
      "max": [
        51.902191162109375,
        14.856807708740234,
        -30.433883666992188
      ],
      "type": "VEC3",
      "bufferView": 0,
      "byteOffset": 7248
    },
    {
      "name": "Box003_1_0_normals",
      "componentType": 5126,
      "count": 160,
      "min": [
        -0.5773502588272095,
        -0.5773502588272095,
        -0.5773502588272095
      ],
      "max": [
        0.5773502588272095,
        0.5773502588272095,
        0.5773502588272095
      ],
      "type": "VEC3",
      "bufferView": 1,
      "byteOffset": 7248
    },
    {
      "name": "Box003_1_0_texcoords",
      "componentType": 5126,
      "count": 160,
      "min": [
        0,
        0
      ],
      "max": [
        1,
        1
      ],
      "type": "VEC2",
      "bufferView": 2,
      "byteOffset": 4448
    },
    {
      "name": "Box003_1_0_indices",
      "componentType": 5123,
      "count": 288,
      "min": [
        0
      ],
      "max": [
        159
      ],
      "type": "SCALAR",
      "bufferView": 3,
      "byteOffset": 7532
    },
    {
      "name": "Box010_1_0_positions",
      "componentType": 5126,
      "count": 20,
      "min": [
        47.879459381103516,
        1.9392260313034058,
        -33.69648361206055
      ],
      "max": [
        51.41860580444336,
        6.709270000457764,
        -30.632991790771484
      ],
      "type": "VEC3",
      "bufferView": 0,
      "byteOffset": 9168
    },
    {
      "name": "Box010_1_0_normals",
      "componentType": 5126,
      "count": 20,
      "min": [
        -0.5773502588272095,
        -0.5773502588272095,
        -0.5773502588272095
      ],
      "max": [
        0.5773502588272095,
        0.5773502588272095,
        0.5773502588272095
      ],
      "type": "VEC3",
      "bufferView": 1,
      "byteOffset": 9168
    },
    {
      "name": "Box010_1_0_texcoords",
      "componentType": 5126,
      "count": 20,
      "min": [
        0,
        0
      ],
      "max": [
        1,
        1
      ],
      "type": "VEC2",
      "bufferView": 2,
      "byteOffset": 5728
    },
    {
      "name": "Box010_1_0_indices",
      "componentType": 5123,
      "count": 30,
      "min": [
        0
      ],
      "max": [
        19
      ],
      "type": "SCALAR",
      "bufferView": 3,
      "byteOffset": 8108
    },
    {
      "name": "Box010_1_1_positions",
      "componentType": 5126,
      "count": 4,
      "min": [
        47.879459381103516,
        1.9392260313034058,
        -30.632991790771484
      ],
      "max": [
        51.41860580444336,
        6.709270000457764,
        -30.632991790771484
      ],
      "type": "VEC3",
      "bufferView": 0,
      "byteOffset": 9408
    },
    {
      "name": "Box010_1_1_normals",
      "componentType": 5126,
      "count": 4,
      "min": [
        -0.5773502588272095,
        -0.5773502588272095,
        0.5773502588272095
      ],
      "max": [
        0.5773502588272095,
        0.5773502588272095,
        0.5773502588272095
      ],
      "type": "VEC3",
      "bufferView": 1,
      "byteOffset": 9408
    },
    {
      "name": "Box010_1_1_texcoords",
      "componentType": 5126,
      "count": 4,
      "min": [
        0,
        0
      ],
      "max": [
        1,
        1
      ],
      "type": "VEC2",
      "bufferView": 2,
      "byteOffset": 5888
    },
    {
      "name": "Box010_1_1_indices",
      "componentType": 5123,
      "count": 6,
      "min": [
        0
      ],
      "max": [
        3
      ],
      "type": "SCALAR",
      "bufferView": 3,
      "byteOffset": 8168
    },
    {
      "name": "Box012_1_0_positions",
      "componentType": 5126,
      "count": 120,
      "min": [
        47.94123458862305,
        13.390908241271973,
        -31.738954544067383
      ],
      "max": [
        51.378658294677734,
        15.152247428894043,
        -30.693052291870117
      ],
      "type": "VEC3",
      "bufferView": 0,
      "byteOffset": 9456
    },
    {
      "name": "Box012_1_0_normals",
      "componentType": 5126,
      "count": 120,
      "min": [
        -0.5773502588272095,
        -0.5773502588272095,
        -0.5773502588272095
      ],
      "max": [
        0.5773502588272095,
        0.5773502588272095,
        0.5773502588272095
      ],
      "type": "VEC3",
      "bufferView": 1,
      "byteOffset": 9456
    },
    {
      "name": "Box012_1_0_texcoords",
      "componentType": 5126,
      "count": 120,
      "min": [
        0,
        0
      ],
      "max": [
        1,
        1
      ],
      "type": "VEC2",
      "bufferView": 2,
      "byteOffset": 5920
    },
    {
      "name": "Box012_1_0_indices",
      "componentType": 5123,
      "count": 180,
      "min": [
        0
      ],
      "max": [
        119
      ],
      "type": "SCALAR",
      "bufferView": 3,
      "byteOffset": 8180
    },
    {
      "name": "Box012_1_1_positions",
      "componentType": 5126,
      "count": 24,
      "min": [
        47.94123458862305,
        13.390908241271973,
        -30.693052291870117
      ],
      "max": [
        51.378658294677734,
        15.152247428894043,
        -30.693052291870117
      ],
      "type": "VEC3",
      "bufferView": 0,
      "byteOffset": 10896
    },
    {
      "name": "Box012_1_1_normals",
      "componentType": 5126,
      "count": 24,
      "min": [
        -0.5773502588272095,
        -0.5773502588272095,
        0.5773502588272095
      ],
      "max": [
        0.5773502588272095,
        0.5773502588272095,
        0.5773502588272095
      ],
      "type": "VEC3",
      "bufferView": 1,
      "byteOffset": 10896
    },
    {
      "name": "Box012_1_1_texcoords",
      "componentType": 5126,
      "count": 24,
      "min": [
        0,
        0
      ],
      "max": [
        1,
        1
      ],
      "type": "VEC2",
      "bufferView": 2,
      "byteOffset": 6880
    },
    {
      "name": "Box012_1_1_indices",
      "componentType": 5123,
      "count": 36,
      "min": [
        0
      ],
      "max": [
        23
      ],
      "type": "SCALAR",
      "bufferView": 3,
      "byteOffset": 8540
    },
    {
      "name": "Box025_1_0_positions",
      "componentType": 5126,
      "count": 240,
      "min": [
        48.015235900878906,
        7.069317817687988,
        -32.036163330078125
      ],
      "max": [
        51.36678695678711,
        12.97513198852539,
        -30.681486129760742
      ],
      "type": "VEC3",
      "bufferView": 0,
      "byteOffset": 11184
    },
    {
      "name": "Box025_1_0_normals",
      "componentType": 5126,
      "count": 240,
      "min": [
        -0.5773502588272095,
        -0.5773502588272095,
        -0.5773502588272095
      ],
      "max": [
        0.5773502588272095,
        0.5773502588272095,
        0.5773502588272095
      ],
      "type": "VEC3",
      "bufferView": 1,
      "byteOffset": 11184
    },
    {
      "name": "Box025_1_0_texcoords",
      "componentType": 5126,
      "count": 240,
      "min": [
        0,
        0
      ],
      "max": [
        1,
        1
      ],
      "type": "VEC2",
      "bufferView": 2,
      "byteOffset": 7072
    },
    {
      "name": "Box025_1_0_indices",
      "componentType": 5123,
      "count": 432,
      "min": [
        0
      ],
      "max": [
        239
      ],
      "type": "SCALAR",
      "bufferView": 3,
      "byteOffset": 8612
    }
  ],
  "asset": {
    "generator": "obj2gltf",
    "version": "2.0"
  },
  "buffers": [
    {
      "name": "closet",
      "byteLength": 289024,
      "uri": "data:application/octet-stream;base64,"
    }
  ],
  "bufferViews": [
    {
      "name": "bufferView_0",
      "buffer": 0,
      "byteLength": 14064,
      "byteOffset": 0,
      "byteStride": 12,
      "target": 34962
    },
    {
      "name": "bufferView_1",
      "buffer": 0,
      "byteLength": 14064,
      "byteOffset": 14064,
      "byteStride": 12,
      "target": 34962
    },
    {
      "name": "bufferView_2",
      "buffer": 0,
      "byteLength": 8992,
      "byteOffset": 28128,
      "byteStride": 8,
      "target": 34962
    },
    {
      "name": "bufferView_3",
      "buffer": 0,
      "byteLength": 9476,
      "byteOffset": 37120,
      "target": 34963
    },
    {
      "buffer": 0,
      "byteOffset": 46596,
      "byteLength": 211217
    },
    {
      "buffer": 0,
      "byteOffset": 257813,
      "byteLength": 31210
    }
  ],
  "images": [
    {
      "name": "asset",
      "mimeType": "image/png",
      "bufferView": 4
    },
    {
      "name": "dfjgha5",
      "mimeType": "image/png",
      "bufferView": 5
    }
  ],
  "materials": [
    {
      "name": "Material__123",
      "pbrMetallicRoughness": {
        "baseColorFactor": [
          0.05098,
          0.05098,
          0.054902,
          1
        ],
        "metallicFactor": 0,
        "roughnessFactor": 0.990000001
      },
      "emissiveFactor": [
        0,
        0,
        0
      ],
      "alphaMode": "OPAQUE",
      "doubleSided": false
    },
    {
      "name": "Material__124",
      "pbrMetallicRoughness": {
        "baseColorFactor": [
          0.121569,
          0.545098,
          0.788235,
          1
        ],
        "metallicFactor": 0,
        "roughnessFactor": 0.990000001
      },
      "emissiveFactor": [
        0,
        0,
        0
      ],
      "alphaMode": "OPAQUE",
      "doubleSided": false
    },
    {
      "name": "04___Default",
      "pbrMetallicRoughness": {
        "baseColorFactor": [
          0.031373,
          0.031373,
          0.031373,
          1
        ],
        "metallicFactor": 0,
        "roughnessFactor": 0.9125644799999999
      },
      "emissiveFactor": [
        0,
        0,
        0
      ],
      "alphaMode": "OPAQUE",
      "doubleSided": false
    },
    {
      "name": "Material__123-2",
      "pbrMetallicRoughness": {
        "baseColorFactor": [
          0.05098,
          0.05098,
          0.054902,
          1
        ],
        "metallicFactor": 0,
        "roughnessFactor": 0.990000001
      },
      "emissiveFactor": [
        0,
        0,
        0
      ],
      "alphaMode": "OPAQUE",
      "doubleSided": false
    },
    {
      "name": "Material__126",
      "pbrMetallicRoughness": {
        "baseColorFactor": [
          0.078431,
          0.078431,
          0.078431,
          1
        ],
        "metallicFactor": 0,
        "roughnessFactor": 0.994
      },
      "emissiveFactor": [
        0,
        0,
        0
      ],
      "alphaMode": "OPAQUE",
      "doubleSided": false
    },
    {
      "name": "03___Default",
      "pbrMetallicRoughness": {
        "baseColorTexture": {
          "index": 0
        },
        "baseColorFactor": [
          1,
          1,
          1,
          1
        ],
        "metallicFactor": 0,
        "roughnessFactor": 0.990000001
      },
      "emissiveFactor": [
        0,
        0,
        0
      ],
      "alphaMode": "OPAQUE",
      "doubleSided": false
    },
    {
      "name": "07___Default",
      "pbrMetallicRoughness": {
        "baseColorTexture": {
          "index": 1
        },
        "baseColorFactor": [
          1,
          1,
          1,
          1
        ],
        "metallicFactor": 0,
        "roughnessFactor": 0.990000001
      },
      "emissiveFactor": [
        0,
        0,
        0
      ],
      "alphaMode": "OPAQUE",
      "doubleSided": false
    },
    {
      "name": "Material__127",
      "pbrMetallicRoughness": {
        "baseColorFactor": [
          0.027451,
          0.027451,
          0.027451,
          0.88
        ],
        "metallicFactor": 0,
        "roughnessFactor": 0.990000001
      },
      "emissiveFactor": [
        0,
        0,
        0
      ],
      "alphaMode": "BLEND",
      "doubleSided": true
    }
  ],
  "meshes": [
    {
      "name": "Rectangle011_1",
      "primitives": [
        {
          "attributes": {
            "POSITION": 0,
            "NORMAL": 1
          },
          "indices": 2,
          "material": 0,
          "mode": 4
        }
      ]
    },
    {
      "name": "Rectangle010_1",
      "primitives": [
        {
          "attributes": {
            "POSITION": 3,
            "NORMAL": 4
          },
          "indices": 5,
          "material": 1,
          "mode": 4
        }
      ]
    },
    {
      "name": "Rectangle009_1",
      "primitives": [
        {
          "attributes": {
            "POSITION": 6,
            "NORMAL": 7
          },
          "indices": 8,
          "material": 0,
          "mode": 4
        }
      ]
    },
    {
      "name": "Rectangle008_1",
      "primitives": [
        {
          "attributes": {
            "POSITION": 9,
            "NORMAL": 10
          },
          "indices": 11,
          "material": 1,
          "mode": 4
        }
      ]
    },
    {
      "name": "Box001_1",
      "primitives": [
        {
          "attributes": {
            "POSITION": 12,
            "NORMAL": 13,
            "TEXCOORD_0": 14
          },
          "indices": 15,
          "material": 2,
          "mode": 4
        },
        {
          "attributes": {
            "POSITION": 16,
            "NORMAL": 17,
            "TEXCOORD_0": 18
          },
          "indices": 19,
          "material": 3,
          "mode": 4
        }
      ]
    },
    {
      "name": "Rectangle035_1",
      "primitives": [
        {
          "attributes": {
            "POSITION": 20,
            "NORMAL": 21
          },
          "indices": 22,
          "material": 0,
          "mode": 4
        }
      ]
    },
    {
      "name": "Box003_1",
      "primitives": [
        {
          "attributes": {
            "POSITION": 23,
            "NORMAL": 24,
            "TEXCOORD_0": 25
          },
          "indices": 26,
          "material": 4,
          "mode": 4
        }
      ]
    },
    {
      "name": "Box010_1",
      "primitives": [
        {
          "attributes": {
            "POSITION": 27,
            "NORMAL": 28,
            "TEXCOORD_0": 29
          },
          "indices": 30,
          "material": 2,
          "mode": 4
        },
        {
          "attributes": {
            "POSITION": 31,
            "NORMAL": 32,
            "TEXCOORD_0": 33
          },
          "indices": 34,
          "material": 5,
          "mode": 4
        }
      ]
    },
    {
      "name": "Box012_1",
      "primitives": [
        {
          "attributes": {
            "POSITION": 35,
            "NORMAL": 36,
            "TEXCOORD_0": 37
          },
          "indices": 38,
          "material": 2,
          "mode": 4
        },
        {
          "attributes": {
            "POSITION": 39,
            "NORMAL": 40,
            "TEXCOORD_0": 41
          },
          "indices": 42,
          "material": 6,
          "mode": 4
        }
      ]
    },
    {
      "name": "Box025_1",
      "primitives": [
        {
          "attributes": {
            "POSITION": 43,
            "NORMAL": 44,
            "TEXCOORD_0": 45
          },
          "indices": 46,
          "material": 7,
          "mode": 4
        }
      ]
    }
  ],
  "nodes": [
    {
      "name": "Rectangle011",
      "mesh": 0
    },
    {
      "name": "Rectangle010",
      "mesh": 1
    },
    {
      "name": "Rectangle009",
      "mesh": 2
    },
    {
      "name": "Rectangle008",
      "mesh": 3
    },
    {
      "name": "Box001",
      "mesh": 4
    },
    {
      "name": "Rectangle035",
      "mesh": 5
    },
    {
      "name": "Box003",
      "mesh": 6
    },
    {
      "name": "Box010",
      "mesh": 7
    },
    {
      "name": "Box012",
      "mesh": 8
    },
    {
      "name": "Box025",
      "mesh": 9
    }
  ],
  "samplers": [
    {
      "magFilter": 9729,
      "minFilter": 9986,
      "wrapS": 10497,
      "wrapT": 10497
    }
  ],
  "scene": 0,
  "scenes": [
    {
      "nodes": [
        0,
        1,
        2,
        3,
        4,
        5,
        6,
        7,
        8,
        9
      ]
    }
  ],
  "textures": [
    {
      "name": "asset",
      "sampler": 0,
      "source": 0
    },
    {
      "name": "dfjgha5",
      "sampler": 0,
      "source": 1
    }
  ]
}
